<?xml version="1.0" encoding="utf-8"?>
<!-- Generator: Adobe Illustrator 22.0.0, SVG Export Plug-In . SVG Version: 6.00 Build 0)  -->
<svg version="1.1" id="Layer_1" xmlns="http://www.w3.org/2000/svg" xmlns:xlink="http://www.w3.org/1999/xlink" x="0px" y="0px"
	 viewBox="0 0 1200 1200" style="enable-background:new 0 0 1200 1200;" xml:space="preserve">
<style type="text/css">
	.st0{fill:#302F3D;}
	.st1{fill:#B8AA6D;}
</style>
<g>
	<g>
		<path class="st0" d="M370.1,271.2C370.1,271.2,370,271.2,370.1,271.2c0,0.2,0.1,0.3,0.2,0.4c0-0.1,0-0.2,0-0.3
			C370.2,271.2,370.1,271.2,370.1,271.2z"/>
		<path class="st0" d="M473.3,138.6c0,0.1,0,0.1,0,0.2c0,0.3,0.4,0.8,0.4,0.8c0.1,0,0.1,0,0.2-0.1c0.1-0.4,0.2-0.8,0.4-1.2
			C473.9,138.5,473.6,138.6,473.3,138.6z"/>
		<path class="st0" d="M646.4,659.7c-0.3,0-0.7,0.3-0.7,0.4c0.2-0.1,0.5-0.2,0.9-0.2C646.5,659.8,646.4,659.7,646.4,659.7z"/>
		<path class="st0" d="M675,689.2c0-0.1-0.1-0.2-0.1-0.4c-0.1,0-0.1,0.1-0.2,0.1L675,689.2z"/>
		<path class="st0" d="M791,617.9L791,617.9c-0.1,0-0.1,0-0.2,0H791z"/>
		<path class="st0" d="M801.1,228.9L801.1,228.9c-0.1,0.1,0,0.2,0,0.2V228.9z"/>
		<path class="st0" d="M829.3,332.3L829.3,332.3c-0.1,0-0.1,0-0.2,0H829.3z"/>
		<path class="st0" d="M370,243.7c-0.2-0.1-0.4-0.2-0.6-0.3c-0.1,0-0.2,0.2-0.3,0.3c0.2,0.1,0.4,0.2,0.6,0.3
			C369.8,243.9,369.9,243.8,370,243.7z"/>
		<path class="st0" d="M795.3,584.7c-1.8,0.4-3.6,0.8-5.4,1.3l-9.1,2.1c-2.2,0.5-4.3,0.9-6.5,1.3c-1,0.2-2,0.4-3,0.6
			c-2.2,0.4-4.2,0.8-6.2,1.2c-4,0.8-8.2,1.6-12.4,2.2l-18.3,2.5c-3.9,0.5-7.6,0.9-11.3,1.2c-20.8,2.1-42.1,3-63.4,2.8
			c-25.2-0.6-50.1-2.6-74-6.2c-26-4-49.6-9-72.1-15.4l-17.4-5.2c-4.1-1.2-8-2.6-11.7-3.8c-1.9-0.6-3.8-1.3-5.7-1.9
			c-1.1-0.4-2.1-0.7-3-1c-2-0.7-4-1.3-5.9-2.1l-8.4-3.2c-1.7-0.7-3.2-1.2-4.7-1.8c-4.1-1.6-8.4-3.2-12.6-5.1l-16.5-7.1l-0.4-0.2
			c-2.1-1-4.2-2-6.4-2.9c-0.9,0-1.6-1-2.7-0.7c-1.1,0.4-2.4,0.1-3.6,0c-1.3,0-2.6,0.2-3.7-0.9c-0.3-0.3-1.3-0.3-1.7,0
			c-2.4,1.3-4.9,0.6-7.3,0.8c-1.5,0.1-3.1,0.8-4.6,0.7c-2.9-0.2-5.7-1.3-8.7-0.9c-1-1.5-1.8-0.6-2.9-0.1c-1.1,0.5-2.2,1.2-3.8,0.2
			c-1.1-0.7-3.1-0.4-4.5,0.7c-0.9,0.6-2,1-3,1.5c-3.1,1.4-5.7,3-6.4,7c-0.4,2.1-1.9,4.2-2.8,6.3c-0.5,1.2-0.8,2.6-0.3,3.2
			c0.9,1.1,0.7,2.2,0.7,3.3c0,1.9,1.2,4-0.8,5.6c-0.2,0.2-0.2,0.9-0.1,1.3c1.9,4.1,0.5,8.4,0.9,12.5c0.1,1.3,0.1,2.7,0,4
			c-0.1,1.5,0.5,3.1-0.8,4.6c-0.5,0.5,0.1,1.9,0.3,2.9c0.4,1.9,1.1,3.7,1.4,5.6c0.1,0.9-0.3,2-0.9,2.7c-1.1,1.4-1.3,2.7-0.3,4.3
			c0.5,0.8,0.5,2,0.3,2.9c-1.4,6-0.6,8.9,3.3,13.1c0.9,0.9,1.4,2.1,2.3,3.1c0.5,0.5,1.1,1.1,1.7,1.2c2,0.3,3.6,1.2,4.8,2.7
			c1.2,1.4,2.7,1.4,4,0.7c1.2-0.6,2-0.2,3.2,0c2.9,0.4,5.9,0.2,8.8,0.1c0.7,0,1.5-0.6,2-0.4c3.6,1.3,7,1,10.6,0.2
			c2.1-0.5,4.7-0.9,6.9,0.7c0.5,0.4,1.5,0.1,2.2,0.1c4.5,0.1,9,0.1,13.6,0.2c1.2,0,2.2-0.1,3.3-0.7c1-0.5,2.9-0.7,4.2,0.5
			c0.5,0.4,1.5,0.5,2.1,0.3c4.2-1.6,8.5-0.5,12.8-0.7c3.2-0.1,6.3,0,9.5,0.1c1.3,0.1,2.7-0.6,3.8,0.7c0.2,0.2,1,0.2,1.2,0
			c1.3-1.3,2.8-0.5,4.2-0.6c1.2-0.2,1.7,0.3,1.5,1.4c-0.3,1.6-0.6,3.3-0.9,4.9c-0.3,1.5,0.1,3-0.6,4.6c-0.8,2-0.9,4.5,0.2,6.8
			c0.5,1.2,0.4,2.3-0.1,3.6c-0.5,1.2-0.5,2.9-0.1,4.1c0.6,1.5,0.6,2.5,0,4c-0.5,1.1,0,2.7,0.1,4.1c0.1,0.8,0.5,1.7,0.3,2.4
			c-1,3.7-1,6.1,0.2,9.7c0.2,0.6,0.6,1.3,1,1.8c1,1.2,2.2,2.2,3,3.7c0.6,1.1,2.1,2.1,3.4,2.5c3,0.9,5.7,2.3,9,2.5
			c3,0.2,6.1,0.6,9.1,0.8c1.5,0.1,3.1,0.6,4.6,0.9c0.9-2.1,2.9,0.8,3.9-0.8c2.3,1.7,4.6-0.5,7,0.1c1.2,0.3,2.5,0.8,3.7,0.9
			c1.1,0,2.2-0.6,3.3-0.7c0.6-0.1,1.4,0.5,2,0.5c1.4,0.1,3,0.5,4.2,0c1.5-0.5,2.6-0.8,4.1,0.2c0.5,0.4,1.4,0.2,2.2,0.3
			c2.4,0.4,5-0.8,7.4,0.9c0.3,0.2,1.5-0.9,1.8-0.7c1.8,1.4,3.7,0.3,5.1-0.2c1.5-0.5,3.2-0.8,4.7-1.6c2.7-1.4,5.2-2.8,7.3-5.1
			c0.9-1,2-1.9,2-3.1c0-1.3,0.9-2.2,0.9-3.2c-0.1-2,2.3-3.2,1.1-5.6c-0.8-1.6,0.5-4-1-5.8c0.5-3.4-1-7,0.8-10.3
			c0.4-0.7,0.4-1.9,0-2.6c-1.7-2.8-0.4-5.7-0.8-8.6c2-1.4-1.2-3.7,0.9-5.1c-0.4-1.2-0.5-2.6-1.2-3.5c-1.2-1.3,1.2-1.6,0.4-2.5
			c1.1-0.3,2.3-0.7,3.4-1c0.1,1.3,0.7,1.6,2,1.6c1,0,1.6-0.5,2.4-0.8c0.9-0.3,2.1-0.1,3,0.4c1.7,0.9,3.5,0.7,5.2,0.4
			c3.9-0.7,3.9-0.8,8,0.2c1.2,0.3,2.4,0.1,3.6,0.2c1.6,0.2,3.3-0.6,4.7,0.8c0.3,0.3,1.2,0.3,1.7,0.1c1-0.4,1.9-1.1,2.9-1.6
			c0.8,1.3,2.1,0.8,3.3,0.9c3.8,0.1,7.6,0,11.3,0.2c2.6,0.1,5.1-1.4,7.8-0.8c1.3,0.3,2.5-0.3,3.8,0.8c0.6,0.5,2.2-0.2,3.3-0.3
			c1.4-0.1,3-0.4,4.2,0c1.8,0.6,3.3,0.9,5,0c0.4-0.2,1.1,0,1.5,0.1c2.2,0.8,4.3,0.9,6.4,0.1c0.9-0.4,0.9,0,0.9,0.6c0,1.3,0,2.7,0,4
			c0,0.6-0.1,1.2,0.1,1.7c1.2,3.5,1,4,0.1,8.8c-0.6,3-0.4,6.2,1.6,9.4c0.3,0,0.6,0.2,0.1,0.2c0.4,0.7,0,1.1-0.4,1.5
			c-0.2-0.5-0.4-0.9-0.5-1.3c-0.6,0.2-0.9,0.4-0.9,0.7c-0.1,4.2-0.2,8.5,0,12.8c0.1,2.4,1,4.7,1,7.1c0,1.1,0.8,2.5,1.8,3.2
			c1.6,1.3,1.7,3.8,4.2,4.6c1.3,0.4,2.6,0,3.7,0.8c0.9,0.7,1.9,1.3,2.8,1.9c0.2,0.1,3.7-0.6,3.7-0.8c0-0.4-1.8-0.9-0.1-1.3
			c1.1-0.3,0.9,0.8,1.1,1.4c0.1,0.3,0.4,0.4,0.6,0.6c0.2,0.2,0.4,0.4,0.6,0.6c0.1-0.2,0.3-0.5,0.4-0.7c0.3-0.7,0.5-1.5,0.9-2.3
			c0.1-0.2,0.8-0.2,0.9-0.1c0.3,0.4,0.5,0.8,0.6,1.3c0,0.2-0.4,0.4-0.6,0.6c-0.3,0.3-0.5,0.6-0.7,0.9c0.4,0.1,0.8,0.3,1.2,0.3
			c1.2,0,2.4,0,3.6,0.1c1.5,0.1,2.6,0.1,2.4-2c-0.1-1,0.9-0.6,1.8-1.1c0.2-0.1,0.3-0.3,0.3,0c0.4-0.3,0.5-0.2,0.5-0.1
			c-0.1,0.2-0.3,0.4-0.4,0.5c0.1,0.5,0.4,0.8,0.8,0.9c0.4,0,0.9-0.4,1.4-0.6c-0.1,0.8-0.1,1.6-0.3,2.4c-0.1,0.3-0.8,0.4-1.2,0.6
			c0.5,0.1,1.3,0.5,1.7,0.3c2.3-1.1,4.6-1.4,7,0.1c0.5,0.3,1.5,0.2,2.2,0.1c6.3-1.1,7.2-1.1,13,0.2c0.9,0.2,1.8,0,2.7,0.1
			c5.4,0.1,10.9,0.2,16.4,0.2c2,0,4-0.5,6-0.8c0.3,0,0.6-0.2,0.7-0.4c3.2-3.3,6.9-6,8.4-10.7c0.8-2.6,1.3-5.3,2.5-7.8
			c0.5-0.9-0.4-1.8-0.6-2.7c-0.4-1.3-2.1-2.4-0.5-4.3c1.4-1.6-0.6-3.8-0.5-5.7c0.2-1.9,0.9-3.5,0.4-5.7c-0.9-4.1-1-8.3,0-12.5
			c0.2-0.8,0.4-1.8,0-2.4c-0.9-1.5-0.7-3-0.2-4.5c0.1-0.4,0.5-0.7,0.5-1.1c0-0.8-0.7-2-0.3-2.5c1.1-1.4,3.1-1.4,4.7-1.7
			c2.4-0.3,5,0.2,7-1.6c0.3-0.3,1.3,0.1,1.7-0.2c1.3-0.6,1.8,2,3.1,0.7c1.2-1.1,2.6-0.2,3.8-0.6c1.1-0.4,2-1.1,3.3-0.8
			c0.4,0.1,1-0.1,1.2-0.4c1.2-2.2,3.7-1.5,5.4-1.8c4.3-0.7,4.3-0.4,7.1-2.2c0.5-0.3,1-0.7,1.5-0.7c3.2,0.3,5.6-1.7,8.4-2.5
			c2.8-0.9,5.7-1.4,8.6-2.2c0,0,0-0.3-0.2-0.4c-0.3-0.2-0.5-0.4-0.6-0.5c0.2,0,0.5-0.2,0.5-0.1c0.2,0.2,0.2,0.4,0.3,0.6
			c3-0.2,5-2.1,7-3.7c1.7-1.4,3.6-2.5,5.5-3c1.6-0.5,2.7-1.1,3.6-2.2c1.7-1.9,3.2-4,4.3-5.8c-1.1-0.4-1.7-0.8-2.1-1.4
			c-0.2-0.3-0.2-0.9,0.1-1.1c0.2-0.3,1-0.4,1.1-0.3c0.7,1.1,1.3,0.6,1.9,0c0.3-0.3,0.8-0.3,1.2-0.5c-0.1,0.4,0,0.9-0.2,1.2
			c-0.5,0.6-1,1.1-1.5,1.5c-0.2,0.2-0.5,0.4-0.5,0.6c1.2-0.4,2.2-0.4,2.4-0.8c1.4-2.6,3.8-4.3,5.8-6.4c1.1-1.2,2.3-2.5,3.1-4
			c0.4-0.6,0.3-1.1,1.2-1.4c0.7-0.3,1.1-1.4,1.7-2.2c0.9-1.2,1.8-2.6,2.9-3.6c2.2-2.1,2.9-4.7,3.3-7.4c0.2-1.3,0.3-2.5,1-3.6
			c0.1-0.2,0.2-0.3,0.3-0.5c-8,2.9-16.3,5.5-25,8C803.9,582.7,799.5,583.7,795.3,584.7z"/>
		<path class="st0" d="M537.1,482.9c11.3,2.2,21.4,4,30.7,5.5c0.1-8.4,0.2-14.3,0.6-14.7c0.1-0.1-0.5-0.9-0.8-1.4
			c0.9-0.2,1.5-0.3,2-0.5c3.2-1.5,6.4-2.2,9.9-2c1.5,0.1,3,0.3,4.2-0.5c0.6-0.4,7.2,0.7,8.2,0.7c3.8-0.1,7.7-0.2,11.5-0.2
			c8-0.1,16-0.1,24.1,0.2c15.9,0.6,31.9,2.2,47.4,6.1c5.7,1.5,11.4,3.2,16.4,6.3c2.3,1.4,4.4,3,6.3,4.8c1.7,1.6,3.1,3.4,4.4,5.2
			c0.1,0,0.3,0,0.4,0c6-0.6,12.1-1.3,18.2-2.1c18.1-2.4,37.5-6.4,59.2-12.1c13-3.6,24.6-7.3,34.9-11.4c-1.6-2.6-3.7-4.8-5.5-7.2
			c-0.7-0.9-0.8-1.7-1-2.7c-0.1-0.6-1.2-0.9-1.7-1.4c-0.1-0.1-0.3-0.3-0.4-0.4c-0.7-1.6-1.7-3.1-3.1-4.4c0,0,0-0.1,0-0.1
			c-0.3-1.5-1.4-2.4-2.4-2.9c-1-0.6-1.8-0.9-2.3-2.1c-0.5-1-1.8-1.7-2.7-2.5c-0.9-0.7-1.5-0.7-2-0.2c-0.6-0.6-1.2-1.3-1.7-1.9
			c0-0.1,0-0.1,0-0.2c-0.2-1.9-3.4-4.6-6-5.5c-1.1-0.9-4.4-3.6-6.2-4.8c-1-2.1-3.6-6.4-4.4-7.1c-0.4-0.4-0.7-0.7-1-1
			c0.4-0.5,1.5-0.8,1.4-1.6c-0.1-0.6-0.7-1.4-0.5-1.7c0.4-0.5,1.3-0.5,1.8-1c0.3-0.3,0.6-1.1,0.4-1.4c-0.3-0.5-1-0.7-1.5-1
			c0.7-0.1,1.5,0,2.1-0.3c4.4-1.9,8.6-4,10.5-8.7c0.1-0.1,0.1-0.1,0.2-0.2c1.2-0.7,2.3-1.4,3.2-2.3c2.7-1.3,5.1-2.8,6.6-5.7
			c0.6-1.1,1.9-1.9,2.8-2.8c1.6-1.6,3.1-3.4,4.5-5.2c4.4-5.2,7.3-11,10.2-17c0.6-1.2,0.9-3,3.1-3.2c0.5,0,1-1.3,1.2-2
			c1.3-3.8,2.4-7.6,3.7-11.3c0.3-1,0.5-2.3,1.2-3c1.5-1.6,1.9-3.1,1.7-5.3c-0.2-2,1.1-4.2,1.9-6.2c0.9-2.3,0.5-3.3-1.9-3.8
			c-1.2-0.2-2.4,0-3.6-0.1c-0.9,0-1.5-1.5-1.1-2.3c0.1-0.1,0.4-0.1,0.6-0.2c0.4,2.8,1.8,0.9,3,0.8c0.9,0,1.8,0.8,2.6,1.2
			c1.8,0.9,2,0.8,1.9-1.2c-0.1-1.5-0.5-3-1.1-4.5c-0.3-0.2-0.5-0.4-0.6-0.5c0.2-0.1,0.5-0.2,0.5-0.2c0.1,0.2,0.2,0.4,0.3,0.6
			c1.2-0.3,1.9-0.9,1.8-2.1c-0.2-1.7,0.6-3.5-0.5-5.1c0.9-3.6-1-7.1-0.4-10.7c0.2-1.4-0.2-2.9-0.4-4.3c0-0.2-0.3-0.4-0.4-0.6
			c3.4-1.9,0.1-4.6,0.7-7c0.5-2.3,0.6-5.1,0-7.5c-0.6-2.2-0.7-4.2-0.8-6.3c0-0.3,0.1-0.7,0-0.9c-2.5-3.7-1.5-8.2-2.9-12.2
			c-0.9-2.5-1.3-5.1-1.7-7.8c-0.1-0.7,0.1-1.7-0.3-2.1c-2.2-2.4-2.4-5.6-3.8-8.3c-1-2-2.1-3.9-2.7-6.1c-0.4-1.5-0.8-3.3-2.4-4.4
			c-0.7-0.5-1.4-1.5-1.6-2.4c-1-4.6-4.8-7.6-7.1-11.4c-0.3-0.4-1-0.5-1.4-0.8c-2.6-1.4-2.6-1.4-4.3-3.3c-0.2,0.4-0.4,0.6-0.6,0.8
			c-0.6,0.5-1.3,0.9-1.9,1.4c-0.1-0.1-0.2-0.3-0.2-0.4c0-1.2,0.7-1.8,1.8-2c0.3-0.1,0.5,0,0.8,0c-0.3-0.6-0.5-1.2-0.9-1.4
			c-3.1-1.1-5.2-3.5-7.9-5.1c-0.7-0.5-1.4-1.2-2.2-1.2c-2.6-0.3-4.7-1.5-6.2-3.5c-0.2-0.3-0.8-0.5-1.1-0.5c-2.7,0.6-4.7-1.2-6.8-2.2
			c-1.7-0.8-3.3-1.7-5.3-1.6c-1.2,0-2.5-0.4-3.7-0.9c-5.1-2.4-5.1-2.4-9.3-2.7c-1.8-0.2-3.7-0.8-5.5-0.9c-1.8,0-3.3-0.9-4.9-1.4
			c-2.6-0.8-5.4-0.9-8,0.4c-0.1,0.7,0.5,1.7-0.8,2.2c-0.2,0.8-0.4,1-0.6,1.3c-0.1-0.4-0.3-0.7-0.3-1.1c0-0.2,0.3-0.4,0.5-0.6
			c0.2,0.3,0.4,0.5,0.5,0.4c0-1.1-0.5-2.1,0.8-2.2c-0.2-0.6-0.4-1.1-0.5-1.7c-0.1-0.3,0.1-0.6,0.1-0.9c-0.8,0-1.5-0.1-2.3,0
			c-1.7,0.2-0.4,0.7-0.2,1.2c0.1,0.4,0,0.8-0.1,1.2c-0.3-0.2-0.7-0.3-1-0.5c-1.2-0.9-0.1-2.4-0.7-3.3c-0.6-1-1.1-1.4-0.2-2.6
			c0.6-0.8,0.2-2.3,0.3-3.4c0.2-2-0.6-4,0.8-5.9c0.5-0.5,0.4-1.9,0-2.6c-1.4-2.6-1-5.4-0.7-8.1c0.1-1.4-2.5-2.8-0.1-4.2v-4.4
			c0-1.6-0.1-3.3,0-4.9c0.2-1.5,0.8-3,0.8-4.5c0-1.7,0.5-3.4-0.8-5c-0.4-0.5,0.1-1.5-0.1-2.2c-0.5-2.1,1.8-3.7,0.6-6.2
			c-0.9-1.8-0.5-4.2-0.5-6.4c-0.1-2.2-0.1-4.4,0-6.7c0.1-2.2-0.6-3.9-2.2-5.4c-1-1-2.1-1.9-2.7-3.4c-0.5-1.2-1.7-2.4-3.6-2.2
			c-0.7,0.1-1.6-0.4-2.3-0.9c-3.3-2.3-7-2-10.6-1.8c-2.8,0.2-5.7-1.1-8.3,0.7c-0.2,0.1-0.8-0.3-1.2-0.3c-1.3-0.2-2.8-0.9-3.8-0.5
			c-3.8,1.6-7.7,0.2-11.5,0.7c-1.8-1.2-4-1-6-0.9c-2.5,0.1-4.9,0.6-7.4,0.7c-2.5,0.1-5.2-0.3-7.7,0.1c-1.4,0.2-2.4,0.2-3.8,0
			c-2.9-0.5-5.7,0-8.1,2c-1.2,1-2.6,1.9-4,2.1c-3.1,0.5-4,2.3-5.2,4.8c-1.3,2.5-1.7,4.8-1.5,7.3c0.2,2.6-0.9,5.2,0.7,7.7
			c-0.8,1.4,0.2,2.7,0.1,4.1c-0.1,1.4-0.3,2.9-1,4c-1.4,2.4-0.9,4.6,0.1,6.9c0.5,1,1.4,1.6,0.2,2.9c-0.7,0.8-0.2,2.5-0.2,3.9
			c0,2.7,0.3,5.4-0.1,8c-0.4,2.7,1.1,5,1,7.6c-0.1,2.7,0,5.3,0,8c0,0.9,0.4,2.3,0,2.6c-1.4,0.8-0.3,2.5-1.3,3.1
			c-0.7,0.4-1.8,0.3-2.6,0.1c-1.8-0.3-3.8,0.7-5.6-0.8c-0.4-0.4-1.7,0.6-2.7,0.7c-2.1,0.1-4.3,0.4-6.3-0.2c-3-0.9-9.4-0.1-12.9-0.4
			c-0.7-0.1-1.5-0.1-2.2,0c-1.1,0.1-2.1,0.6-3.2,0.7c-0.9,0-1.7-0.2-2.6-0.4c-5.3-1.3-11-1.3-16.3,0c-1.2,0.3-2.5,0.7-3.8,0.7
			c-1.4,0.1-2.8-0.3-4.2-0.6c-2.8-0.6-15.9-2.8-17.9-1.3c-1.2,0.9-2,0.2-3-0.1c-1.7-0.5-2.2-1.3-1.2-2.5c0.7-0.9,2.1-1.8,1.3-2.9
			c-1.2-1.7-0.9-3.3-0.7-5c0.1-1.6-0.8-3.5,0.7-5.1c0.3-0.3-0.7-1.4-0.7-2.2c-0.1-2.1-0.2-4.2,0-6.2c0.2-1.9,0-3.9,0.6-5.9
			c0.7-2.3,0.5-5-0.3-7.7c-0.7-2.4-0.1-5.1,0-7.7c0.1-1,0.7-2.1,0.4-2.9c-1.2-2.9-1.1-5.7,0-8.6c0.8-2.3-0.7-4.7-1.2-7
			c-0.6-2.7-0.8-2.7-3.7-5.5c-0.7-0.7-1.4-1.7-2.3-2.1c-0.8-0.4-2.3,0.5-1.9-1.6c0.1-0.4-1.4-1.4-2.2-1.5c-1.3-0.2-2.8-0.2-3.9,0.3
			c-1.5,0.7-0.9-0.3-1.1-0.8c-0.4-1.3-2.5,0.5-2.7-1.4h-0.9c0.4,0.7-1.6,1-0.3,2.1c0.5,0.4,0.1,1.6,0.3,2.4c0.3,1.4-0.5,1.7-1.6,1.9
			c-0.4,0.1-0.8,1.1-1.1,0c-0.1-0.3,0.2-1.1,0.4-1.1c1.1-0.1,1.9-0.3,0.5-1.2c-1.1-0.8,0-1.8-0.4-2.2c-0.5-0.5-1.5-0.5-2.4-0.7
			c-1-0.2-2-0.4-2.9-0.5c-0.6-0.1-1.6,0.3-1.6-0.9c-0.6,0-1.2,0-1.8,0c-1.9,1.1-3.4,1.7-4.4,1.7c-3.4,0-6.9-0.2-10.4-0.1
			c-3.3,0.1-6.7,0.7-10,0.7c-3,0-6.4,0.1-9-1.1c-3.1-1.5-5.2,0-7.8,0.4c-0.7,0.1-1.4,0.5-2,0.5c-2.8-0.1-5.7-0.4-7.5,2.5
			c-3.8,0.2-5,3.7-7.5,5.6c-0.3,0.2-0.3,0.6,0.4,1.1c-0.4,0.2-0.6,0.3-0.7,0.5c-0.1,0.1-0.1,0.2-0.1,0.3c0.4-0.1,1-0.2,1.9-0.3
			c-0.5-0.1-0.8-0.3-1.1-0.5c0.8-0.3,2-0.5,2.4-0.3c0.2,0.1,0.3,0.5-1.4,0.8c1.5,0.5,1,1.1,0.9,1.7c-0.2,1-0.7,1.2-1.5,0.8
			c-0.7-0.3-1.4-1.6-1.4-2.3c-0.6,0.1-0.8,0.3-0.8,0.4c-0.1,1,0,2-0.1,3c-0.1,1.1,0.9,2.6,2.8,2.3c0.1-0.5,0.3-1.1,0.6-1.6
			c0.1-0.2,0.8,0,1.3,0c0,0,0,0-1,1.3c1.4-1.3,1.9-1.4,2.2-1.2c0.3,0.2,0.5,1,0.4,1c-1,0.5-2,1-3,1.4c-0.5,2-0.5,3.2-2.7,2.8
			c-0.1,0-0.7,1.1-0.6,1.3c1.3,1.4,1.1,2.8,0.2,4.2c-0.2,0.2-0.3,0.5-0.2,0.8c0.6,1.7,0.4,3.3,0,5c-0.3,1.7-0.4,3.6,0,5.3
			c0.5,2.4,0.8,4.7-1,6.8v11.5c1.5,1.1,0.7,2.7,0.9,4.1c0.1,1.1,0.2,2.1,0.7,3.2c0.5,1,0.7,2.8-0.4,4.1c-0.4,0.5-0.3,1.7,0.1,2.3
			c0.6,1,0.6,1.7,0.1,2.8c-0.4,0.7-0.3,1.5-0.4,2.3c0.7-0.2,1.7-0.2,2.1-0.6c0,0,0.1-0.1,0.1-0.1c0,0,0,0.1,0,0.1
			c-0.5,0.3-1.1,0.7-1.9,1.1c-0.6,0.3-1.1,0.7-1.6,1.1c-0.6-0.1-1.1-0.3-1.7-0.4c-1.1-0.2-2.2,1.4-3.3,0c-2.3,0.3-4.8-1-6.7,1.3
			c-0.3,0.4-2.5,0-2.9-0.6c-1.5-2.3-3.3-1.1-4.7-0.5c-1.2,0.5-2,0.7-3.2,0c-0.5-0.3-1.4-0.1-2.1-0.4c-1.8-0.7-3.1,2-4.9,0.5
			c-1.5-1.2-3.2-0.4-4.8-0.5c-1.8-0.2-3.7-0.3-5.4,0c-1.8,0.3-3.3-0.9-5.2-0.2c-1.8,0.6-3.9,0-5.9,0.1c-1.3,0-2.4,0-3.8,0.6
			c-1.6,0.6-3.9,0.4-5.6-0.2c-1-0.3-1.9-0.5-2.9-0.5c-1.5-0.1-3.1-0.3-4.5,0c-1.4,0.3-2.4-0.9-3.9-0.4c-1.3,0.5-2.9,0.2-4.4,0.3
			c-1.5,0-3.1-0.2-4.5,0c-3.5,0.5-7.1,0.4-10.4,2.4c-4.2,2.6-6,3.9-7.7,6.5c-0.7,1.1-1,1.5,0.6,1.7c0.1,0,0.2,0.7,0.3,1.1
			c-0.5,0.1-1,0.3-1.5,0.2c-0.4-0.1-1-1.2-1.2-0.1c-0.5,2.8-2.1,5.6-0.2,8.7c0.5,0.7,0.1,1.9,0,2.9c-0.1,0.8-0.3,1.6-0.7,2.3
			c-1.1,2,2.8,3.3,0.9,5.5c-1.5,1.8-1.3,4-0.1,6c-1,0.9-0.8,2-0.8,3.1c0,2.3,0.7,4.1,2.8,5.9c1.2,1,0.8,2.1,0.8,3.2
			c0,0.3-0.6,0.8-0.8,0.7c-1.8-0.3-1.5,0.8-2,2c-0.9,2.3-1.1,4.2,0,6.5c0.5,1.2,0.1,2.9,0.2,4.3c-2.3,0.8,0.4,2.5-0.7,3.9
			c-0.8,1-0.2,3.1-0.2,4.7c0,1.4,0.5,2.5,1.9,3c0.1-0.1,0.2-0.2,0.2,0.1c0.4-0.3,0.6-0.2,0.5-0.1c-0.1,0.2-0.3,0.4-0.4,0.5l-0.1-0.1
			c0.2,5.1,2.7,8.8,6.5,11.5c1.4,1,3.4,1.3,5.2,1.7c1.9,0.5,3.9,0.9,5.7-0.4c0,0,0.1,0,0.1,0c0.9,2.8,3.3,1.2,5.1,1.6
			c0.2,0.1,0.5-0.5,0.7-0.9c0.6,0,1.2,0,1.9-0.1c0,0.7,0.3,1.1,1.4,1.2c3.1,0.4,6.1-0.8,9.1-0.9c0.7-1.4,1.4-0.1,2,0.1
			c2.6,1.1,5.4,0.9,8.5,0.5c3.5-0.4,7-0.1,10.6,0c0.8,0,1.6,0.5,2.5,0.6c3.1,0.2,3.2,0.2,3.1,3c0,2-0.6,18.2-0.6,20.4
			c0.3,19.6-0.4,83.7-0.4,140.5c14,5.9,29.1,11.4,45.4,16.6C495.6,472.7,516.1,478.7,537.1,482.9z M566.8,318.3
			c1.6-5.7,1.7-11.9,0.2-17.7c0-0.1,0-0.2,0-0.3c0.5-7.2,1.6-14.5,1.5-21.7c0-1.8-1.5-3.4-0.9-4.9c0.6-1.4,2.3-2.3,3.5-3.3
			c0.4-0.3,0.6-0.8,0.9-1.1c0.1-0.1,0.2-0.2,0.2-0.2l0.2,0.2c0,0.6,0.2,0.9,0.3,0.8c0.8-0.2,1.7-0.4,2.3-0.8
			c1.5-1.1,2.8-1.2,4.4-0.3c0.8,0.5,2.2,0.7,2.9,0.3c1.3-0.7,1.9-2.4,4-0.9c2.7,2,8.6,0.6,11.6,0.6c5.3-0.1,10.6,0,15.8,0.2
			c10.6,0.4,21.1,1.5,31.5,3.1c7.8,1.2,15.6,2.8,23,5.3c1.6,0.6,3.2,1.2,4.8,1.9c8.9,4.2,15.6,12.7,17.6,22.3
			c1,4.9,0.9,10.1,0.8,15.1c-0.3,11.2-0.8,23-7.2,32.2c-7.9,11.3-22.4,15.4-36,17.4c-18.5,2.7-75.7-0.2-75.4-1
			c-3.1-0.8-4.4-2.2-5.4-5.3c-0.2-0.6,0.1-1.5-0.7-1.1c-0.2-1.6,0.4-2.1-0.3-3.7c2.2-0.8,2.3-4.7,0.1-5.6c2.9-6.4-1.8-14.6,1.9-20.6
			c-1.2,0.2-2.3-1.2-2.2-2.5c0-1.3,0.8-2.4,1.5-3.4C566,322.7,566.3,320.1,566.8,318.3z"/>
		<path class="st1" d="M956.8,380.3c-0.7-3.5-1.7-7-2.7-10.4c-1.1-3.4-2.4-6.7-3.7-9.9c-5.6-12.8-13.2-23.8-21.6-33.3
			c-4.3-4.6-8.7-9-13.3-13.1c-4.6-4-9.4-7.7-14.2-11.2c-4.9-3.4-9.8-6.7-14.9-9.7c-2.5-1.5-5.1-3-7.7-4.4c-2.7-1.6-5.5-2.4-8.1-3.8
			c0,0-0.1,0-0.1,0c-0.1,0-0.1,0.1-0.1,0.2c1.4,2.6,3.4,5,4.6,7.4l4.4,7.5c2.9,5,5.7,9.9,8.3,14.9c2.7,4.9,5.2,9.8,7.5,14.8
			c2.4,4.8,4.4,9.8,6.1,14.6c3.7,9.6,5.8,19.2,6.5,28.1c0.2,4.5,0.3,8.6-0.2,12.9c-0.4,4.2-1.1,8.4-2.2,12.5
			c-4.1,16.4-13.1,31.8-24.4,43.9c-5.5,5.8-12.3,11.5-19.4,16.6c-7.2,5-15,9.6-23.3,13.6c-16.6,8.2-35.3,14.5-54.9,19.9
			c-19.9,5.2-40.3,9.6-60.9,12.4c-20.6,2.7-41.5,4.4-62.4,4.7c-21,0.2-42-0.7-63-2.6c-21-2-41.9-5.6-62.7-9.7
			c-20.8-4.2-41.3-10.1-61.8-16.3c-40.8-13-80.1-29.6-113.8-53.3c-8.5-5.9-16.5-12.3-24-19.2c-7.6-6.9-14.9-14.1-21.2-21.9
			c-6.3-7.8-12-16-16.5-24.7c-4.5-8.7-7.9-17.8-9.7-27.3c-2-9.5-2.3-19.3-0.9-29.2c1.4-9.9,4.7-19.7,9.4-29.1
			c9.5-19,24.6-36,41.4-51.3c-10.2,5-20.2,10.8-29.6,17.7c-9.4,6.9-18.2,14.9-25.9,24.3c-7.7,9.4-14.1,20.3-18.5,32.3
			c-4.4,12-6.4,25-6.2,38c-0.1,13,2.5,25.9,6.3,38.2c4,12.2,9.3,23.9,15.8,34.7c6.4,10.9,13.8,20.9,21.6,30.5
			c7.9,9.5,16.5,18.5,25.6,26.8c9.1,8.3,18.6,16.2,28.5,23.3c9.9,7.1,20.1,13.8,30.5,20c10.4,6.3,21,11.9,31.8,17.1
			c5.4,2.7,10.8,5.2,16.2,7.7l16.4,7.1c5.4,2.4,11,4.5,16.6,6.6l8.4,3.2c2.8,1,5.6,1.9,8.5,2.9c5.7,1.9,11.3,3.9,17,5.6l17.2,5.1
			c23,6.5,46.6,11.3,70.4,15c23.8,3.5,47.9,5.5,72.1,6c24.2,0.3,48.5-1,72.7-3.9l18.1-2.5c6-0.9,12-2.2,18-3.3c3-0.6,6-1.1,9-1.8
			l8.9-2.1c5.9-1.5,11.9-2.7,17.8-4.5c23.8-6.6,47.9-15.8,70.8-29.5c11.4-6.8,22.6-14.8,32.8-24.2c2.5-2.4,5.1-4.7,7.5-7.2
			c2.4-2.6,4.8-5,7.1-7.7c4.5-5.2,9.1-11,13-17.1c3.9-6,7.4-12.3,10.4-18.8c3.1-6.4,5.5-13.1,7.6-19.9c2.1-6.8,3.5-13.8,4.5-20.8
			c0.9-7.1,1.4-14.2,1.2-21.3C959,394.5,958.4,387.3,956.8,380.3z"/>
	</g>
	<g>
		<g>
			<g>
				<path class="st0" d="M260.6,1051l1.4-4.7c2.8-0.5,4.3-1.1,4.6-1.6c-0.1-0.3-0.1-0.6-0.2-0.9c0-0.3-0.1-0.5-0.1-0.7v-0.9v-0.6
					c0-0.5,0-0.8-0.1-0.9h-18.8c-0.1,0.1-0.2,0.3-0.3,0.5c0,0.2-0.2,0.5-0.5,0.8h0.1l-1.4,2.7c0,0.4,1.4,1,4.3,1.6l-1,4.7H227l1-4.8
					c3.5-0.7,5.5-1.4,5.8-2.2l31.1-61.4h4.5l4.9,61.4c0,0.7,1.6,1.4,4.9,2.2l-1,4.8H260.6z M250.9,1033.3h14.5l-2-26.3l-1.4,3.4
					L250.9,1033.3z"/>
				<path class="st0" d="M325.2,1044.9c-2.6,2.1-5.4,3.7-8.1,4.9c-2.8,1.2-5.8,1.8-9.1,1.8c-2,0-3.9-0.3-5.8-0.9
					c-1.9-0.6-3.6-1.4-5.1-2.6c-1.5-1.2-2.7-2.6-3.6-4.2c-0.9-1.7-1.3-3.6-1.3-5.7c0-1.6,0.1-2.7,0.4-3.5l7.6-35.3
					c2.3-11.2,10.5-16.8,24.4-16.8H338l-4.4,15.6h-4.2c0.1-1.3,0.2-2.4,0.3-3.4c0.1-1,0.1-1.8,0.1-2.6c0-1.8-0.2-2.6-0.6-2.6h-6.2
					c-6.4,0-10.6,4.4-12.5,13.1l-6.1,28.8c-0.4,2-0.6,3.7-0.6,5.1c0,5.4,2.6,8,7.7,8c4.3-0.1,8.6-1.6,12.8-4.7L325.2,1044.9z"/>
				<path class="st0" d="M375,1044.9c-2.6,2.1-5.4,3.7-8.1,4.9c-2.8,1.2-5.8,1.8-9.1,1.8c-2,0-3.9-0.3-5.8-0.9
					c-1.9-0.6-3.6-1.4-5.1-2.6c-1.5-1.2-2.7-2.6-3.6-4.2c-0.9-1.7-1.3-3.6-1.3-5.7c0-1.6,0.1-2.7,0.4-3.5l7.6-35.3
					c2.3-11.2,10.5-16.8,24.4-16.8h13.3l-4.4,15.6h-4.2c0.1-1.3,0.2-2.4,0.3-3.4c0.1-1,0.1-1.8,0.1-2.6c0-1.8-0.2-2.6-0.6-2.6h-6.2
					c-6.4,0-10.6,4.4-12.5,13.1l-6.1,28.8c-0.4,2-0.6,3.7-0.6,5.1c0,5.4,2.6,8,7.7,8c4.3-0.1,8.6-1.6,12.8-4.7L375,1044.9z"/>
				<path class="st0" d="M417.5,989.6l-5.1,23.8h15.6l-2.6,6.9h-14.4l-5,23.8h12.5c0.6,0,1.9-2.9,3.8-8.6h4.2l-2.2,15.6h-35.9l1-4.6
					c3.5-0.7,5.4-1.5,5.6-2.4l11.5-54.5c0-0.7-1.5-1.5-4.5-2.2l0.9-4.6h35.9l-4.4,15.6h-4.2c0.1-1.4,0.2-2.6,0.3-3.6
					c0.1-1,0.1-1.9,0.1-2.7c0-1.6-0.2-2.3-0.5-2.3H417.5z"/>
				<path class="st0" d="M488.5,1001.6c-2.6,12.2-11.4,18.4-26.1,18.5l-5.2,24.3c0,0.5,1.5,1.2,4.5,1.9l-1,4.7h-21l1-4.8
					c3.6-0.6,5.4-1.3,5.5-1.9l11.4-53.6c0-0.7-1.5-1.5-4.6-2.2l1.2-5.8h17.4c11.7,0,17.6,4.5,17.6,13.5
					C489.2,997.9,489,999.7,488.5,1001.6z M477.7,1000.8c0.1-0.7,0.2-1.3,0.3-2c0.1-0.6,0.1-1.2,0.1-1.8c0-2.2-0.6-4-1.7-5.4
					c-1.2-1.3-2.9-2-5.4-2c-0.3,0-0.7,0-1.1,0.1c-0.4,0-0.7,0.1-1.1,0.2l-5,23.4c7.5-0.2,12.1-4.1,13.7-11.6L477.7,1000.8z"/>
				<path class="st0" d="M538.8,998.2h-4.3c0.1-1.3,0.2-2.5,0.3-3.5c0.1-1,0.1-1.9,0.1-2.6c0-1.6-0.2-2.4-0.6-2.4h-6l-11.7,54.8
					c0,0.5,1.5,1.2,4.5,1.9l-1,4.7h-21l1-4.8c3.6-0.6,5.4-1.3,5.5-1.9l11.7-54.7h-6c-0.7,0-2,2.8-3.9,8.5h-4.2l2.1-15.5h37.7
					L538.8,998.2z"/>
				<path class="st0" d="M571.9,989.6l-5.1,23.8h15.6l-2.6,6.9h-14.4l-5,23.8h12.5c0.6,0,1.9-2.9,3.8-8.6h4.2l-2.2,15.6h-35.9l1-4.6
					c3.5-0.7,5.4-1.5,5.6-2.4l11.5-54.5c0-0.7-1.5-1.5-4.5-2.2l0.9-4.6h35.9l-4.4,15.6h-4.2c0.1-1.4,0.2-2.6,0.3-3.6
					c0.1-1,0.1-1.9,0.1-2.7c0-1.6-0.2-2.3-0.5-2.3H571.9z"/>
				<path class="st0" d="M636.6,1032.2c-1.4,6.6-3.9,11.4-7.5,14.3c-3.7,3-8.6,4.5-14.7,4.5H594l1-4.7c3.5-0.7,5.4-1.4,5.5-2
					l11.6-54.4c0-1-1.5-1.8-4.6-2.4l1-4.8h17.6c11.7,0,17.6,4.4,17.6,13.3c0,1.6-0.2,3.5-0.6,5.5L636.6,1032.2z M631.7,1002.7
					c0.4-1.8,0.6-3.5,0.6-5c0-5.2-2.6-7.8-7.7-7.8c-0.3,0-0.6,0-0.8,0.1c-0.2,0-0.4,0.1-0.7,0.2l-11.5,53.7c0.1,0.1,0.3,0.1,0.7,0.1
					h0.8c6.5,0,10.7-4.3,12.5-12.9L631.7,1002.7z"/>
				<path class="st0" d="M710.4,1051l1-4.7c3.5-0.7,5.4-1.4,5.5-2l5.1-24h-13.1l-5.1,24.1c-0.1,0.5,1.5,1.2,4.8,1.9l-1,4.7h-21.4
					l1-4.7c3.5-0.7,5.4-1.4,5.5-2l11.7-55c0-0.6-1.6-1.3-4.7-1.9l1-4.7h21.4l-1,4.7c-3.6,0.7-5.5,1.4-5.6,2l-5.1,24h13.1l5.1-24.1
					c0-0.6-1.6-1.3-4.7-1.9l1-4.7h21.3l-1,4.7c-3.6,0.7-5.4,1.4-5.5,2l-11.7,55c-0.1,0.5,1.4,1.2,4.7,1.9l-1,4.7H710.4z"/>
				<path class="st0" d="M775.9,989.6l-5.1,23.8h15.6l-2.6,6.9h-14.4l-5,23.8h12.5c0.6,0,1.9-2.9,3.8-8.6h4.2l-2.2,15.6h-35.9l1-4.6
					c3.5-0.7,5.4-1.5,5.6-2.4l11.5-54.5c0-0.7-1.5-1.5-4.5-2.2l0.9-4.6h35.9l-4.4,15.6h-4.2c0.1-1.4,0.2-2.6,0.3-3.6
					c0.1-1,0.1-1.9,0.1-2.7c0-1.6-0.2-2.3-0.5-2.3H775.9z"/>
				<path class="st0" d="M836.5,1050.9c-2,0-3.6-0.6-4.8-1.8c-1.2-1.2-1.8-2.8-1.8-4.8c0-0.7,0.1-1.5,0.3-2.3l2.1-9.9
					c0.1-0.9,0.3-1.8,0.4-2.5s0.2-1.3,0.2-1.8c0-5-2.5-7.5-7.6-7.5h-4.4l-5.1,24.1c0,0.6,1.5,1.3,4.6,1.9l-1,4.7h-21.2l1-4.8
					c3.6-0.6,5.4-1.3,5.5-1.9l11.4-53.6c0-0.7-1.5-1.5-4.6-2.2l1.2-5.8h20.1c11.9,0,17.8,4.4,17.8,13.1c0,4.5-1.1,8.6-3.2,12.3
					c-2.1,3.7-5,6.5-8.7,8.5c3.7,1.6,5.5,4.6,5.5,9.2c0,1.5-0.2,3.2-0.6,5l-2.9,13.6c0,0.5,1.5,1.2,4.5,1.9l-0.9,4.6H836.5z
					 M838.9,1001.3c0.1-0.8,0.3-1.6,0.4-2.3s0.2-1.4,0.2-2c0-2.4-0.6-4.1-1.7-5.1c-1.2-0.9-2.5-1.6-3.9-1.8
					c-1.5-0.3-2.8-0.4-4.1-0.3c-1.3,0.1-2-0.1-2.2-0.5l-5.1,24.1h4.2c6.4-0.1,10.5-4.1,12.3-11.8V1001.3z"/>
				<path class="st0" d="M887.8,989.6l-5.1,23.8h15.6l-2.6,6.9h-14.4l-5,23.8h12.5c0.6,0,1.9-2.9,3.8-8.6h4.2l-2.2,15.6h-35.9l1-4.6
					c3.5-0.7,5.4-1.5,5.6-2.4l11.5-54.5c0-0.7-1.5-1.5-4.5-2.2l0.9-4.6h35.9l-4.4,15.6h-4.2c0.1-1.4,0.2-2.6,0.3-3.6
					c0.1-1,0.1-1.9,0.1-2.7c0-1.6-0.2-2.3-0.5-2.3H887.8z"/>
			</g>
		</g>
		<g>
			<g>
				<path class="st0" d="M129,909.8c9.8-1.9,14.7-3.7,14.7-5.3V766.7c0-2.5-4.9-5.7-14.7-9.7v-11.8H158c5.4-0.5,10.6-0.8,15.5-0.8
					c38.6,0,57.9,16.1,57.9,48.4c0,18.1-7.3,31-21.8,38.9c20,10.3,30,25,30,43.9v0.8c0,14.9-4.3,26.2-12.8,33.9
					c-8.5,7.7-21.6,11.6-39.2,11.6H129V909.8z M184.8,763.6c-2.5,0-5.5,0.5-9.2,1.6v58.9h3.9c7.4-0.2,13-2.7,17-7.6
					c3.9-4.9,5.9-12.4,5.9-22.4c0-20.3-5.4-30.5-16.3-30.5H184.8z M175.6,842v61.5c0.9,0.2,1.5,0.3,2,0.4c0.4,0.1,0.7,0.1,0.9,0.1
					h3.2h1.3c16.5,0,24.7-10,24.7-30.1v-0.8c0-20.8-9.1-31.2-27.4-31.2H175.6z"/>
				<path class="st0" d="M277.6,921.9v-12.1c9.8-1.9,14.7-3.7,14.7-5.3v-142c0-1.6-4.9-3.3-14.7-5.3v-12.1h61.3v12.1
					c-9.8,1.9-14.7,3.7-14.7,5.3v142.3c0,1.4,4.9,3.1,14.7,5v12.1H277.6z"/>
				<path class="st0" d="M481.5,785.1h-12.1c-1.8-14.7-3.7-22.1-5.8-22.1h-17.4v141.5c0,1.6,4.6,3.3,13.9,5.3v12.1h-60.5v-12.4
					c9.8-1.6,14.7-3.2,14.7-5V763h-17.4c-2.1,0-4,7.4-5.8,22.1h-12.1l-3.2-40h108.6L481.5,785.1z"/>
				<path class="st0" d="M623.8,906.4c-6.1,5.4-12.9,9.5-20.4,12.6c-7.5,3-15.7,4.5-24.9,4.5c-6.5,0-12.9-1-19.3-2.9
					c-6.4-1.9-12.2-4.7-17.4-8.4c-5.2-3.7-9.4-8.2-12.6-13.7c-3.2-5.4-4.9-11.7-4.9-18.7v-91.3c0-28.9,20-43.4,60-43.4h38.4
					l-3.2,40.2h-12.1c-1.8-14.9-3.7-22.4-5.8-22.4h-17.9c-18.4,0-27.6,11.3-27.6,34v74.6c0,22.7,9.4,34,28.1,34
					c12.6-0.3,24-4.3,34.2-11.8L623.8,906.4z"/>
				<path class="st0" d="M782.7,879.8c0,28.9-19.2,43.4-57.6,43.4H724c-39.1,0-58.7-14.5-58.7-43.4v-92.6
					c0-28.9,19.6-43.4,58.7-43.4h1.1c38.4,0,57.6,14.5,57.6,43.4V879.8z M750.9,795.7c0-11.6-2.1-20.1-6.3-25.6
					c-4.2-5.5-11-8.3-20.5-8.3c-17.9,0-26.8,11.3-26.8,33.9v75.8c0,22.6,8.9,33.9,26.8,33.9s26.8-11.3,26.8-33.9V795.7z"/>
				<path class="st0" d="M823.2,921.9v-12.1c9.8-1.9,14.7-3.7,14.7-5.3v-142c0-1.6-4.9-3.3-14.7-5.3v-12.1h61.3v12.1
					c-9.8,1.9-14.7,3.7-14.7,5.3v142.3c0,1.4,4.9,3.1,14.7,5v12.1H823.2z"/>
				<path class="st0" d="M1050.7,756.7c-9.8,1.9-14.7,4.1-14.7,6.6v172.3l-78.1-121.5v90.5c0,1.6,4.6,3.3,13.9,5.3v12.1h-48.9v-12.4
					c9.8-1.6,14.7-3.2,14.7-5V763.3c0-2.5-4.9-4.6-14.7-6.6v-11.8h32.4l60.5,95v-95h35V756.7z"/>
			</g>
		</g>
	</g>
	<g>
		<g>
			<path class="st0" d="M220.8,953.7h-19.8c-3.6,0-6.6-3-6.6-6.6c0-3.6,3-6.6,6.6-6.6h19.8c3.6,0,6.6,3,6.6,6.6
				C227.4,950.8,224.4,953.7,220.8,953.7z"/>
		</g>
		<g>
			<path class="st0" d="M284.2,953.7h-16.5c-3.6,0-6.6-3-6.6-6.6c0-3.6,3-6.6,6.6-6.6h16.5c3.6,0,6.6,3,6.6,6.6
				C290.8,950.8,287.8,953.7,284.2,953.7z"/>
		</g>
		<g>
			<path class="st0" d="M924.1,953.7h-16.5c-3.6,0-6.6-3-6.6-6.6c0-3.6,3-6.6,6.6-6.6h16.5c3.6,0,6.6,3,6.6,6.6
				C930.7,950.8,927.7,953.7,924.1,953.7z M860.6,953.7h-41.4c-3.6,0-6.6-3-6.6-6.6c0-3.6,3-6.6,6.6-6.6h41.4c3.6,0,6.6,3,6.6,6.6
				C867.3,950.8,864.3,953.7,860.6,953.7z M764.1,953.7h-16.5c-3.6,0-6.6-3-6.6-6.6c0-3.6,3-6.6,6.6-6.6h16.5c3.6,0,6.6,3,6.6,6.6
				C770.7,950.8,767.8,953.7,764.1,953.7z M700.7,953.7h-41.4c-3.6,0-6.6-3-6.6-6.6c0-3.6,3-6.6,6.6-6.6h41.4c3.6,0,6.6,3,6.6,6.6
				C707.3,950.8,704.3,953.7,700.7,953.7z M604.1,953.7h-16.5c-3.6,0-6.6-3-6.6-6.6c0-3.6,3-6.6,6.6-6.6h16.5c3.6,0,6.6,3,6.6,6.6
				C610.7,950.8,607.8,953.7,604.1,953.7z M540.7,953.7h-41.4c-3.6,0-6.6-3-6.6-6.6c0-3.6,3-6.6,6.6-6.6h41.4c3.6,0,6.6,3,6.6,6.6
				C547.3,950.8,544.3,953.7,540.7,953.7z M444.2,953.7h-16.5c-3.6,0-6.6-3-6.6-6.6c0-3.6,3-6.6,6.6-6.6h16.5c3.6,0,6.6,3,6.6,6.6
				C450.8,950.8,447.8,953.7,444.2,953.7z M380.7,953.7h-41.4c-3.6,0-6.6-3-6.6-6.6c0-3.6,3-6.6,6.6-6.6h41.4c3.6,0,6.6,3,6.6,6.6
				C387.3,950.8,384.4,953.7,380.7,953.7z"/>
		</g>
		<g>
			<path class="st0" d="M999.1,953.7h-19.8c-3.6,0-6.6-3-6.6-6.6c0-3.6,3-6.6,6.6-6.6h19.8c3.6,0,6.6,3,6.6,6.6
				C1005.7,950.8,1002.7,953.7,999.1,953.7z"/>
		</g>
	</g>
</g>
</svg>
