<?xml version="1.0" encoding="utf-8"?>
<!-- Generator: Adobe Illustrator 22.0.0, SVG Export Plug-In . SVG Version: 6.00 Build 0)  -->
<svg version="1.1" id="Layer_1" xmlns="http://www.w3.org/2000/svg" xmlns:xlink="http://www.w3.org/1999/xlink" x="0px" y="0px"
	 viewBox="0 0 1200 1200" style="enable-background:new 0 0 1200 1200;" xml:space="preserve">
<style type="text/css">
	.st0{fill:#302F3D;}
	.st1{fill:#B8AA6D;}
</style>
<g>
	<path class="st0" d="M896.9,293.3c0-1.3,0.1-2.5-0.5-3.8c-0.7-1.7-2.2-3.1-4.2-4.3c-2.6-1.6-6.6-2.2-10.2-3.1c-0.2,0-0.5,0-0.8,0
		c-3.7,0-7.4-0.2-11.1,0c-0.5,0-0.9,0-1.4,0.1c-0.5,0-0.9,0-1.4,0c-5.5,0.1-11.1,0.1-16.6,0.2c-0.3,0-0.9-0.1-0.9-0.2
		c0-0.3-0.2-0.4-0.8-0.4c-4.1,0.3-8-0.1-12.1,0.1c-2.5,0.1-5,0.2-7.5,0.2c-2.4,0-4.8,0.2-7.2,0c-2.4-0.2-5,0.1-7.5,0.1
		c-0.6,0-1.2,0.1-1.1-0.4c0,0-0.4-0.1-0.7-0.1c-1.7,0-3.5,0.1-5.2,0.1c-1.7,0-3.3-0.1-5-0.1c-1,0-2.1,0-3.2,0.1c-0.9,0-2,0-2.7,0.3
		c-1.2,0.4-1.9-0.2-2.9-0.1c-4.7,0.1-9.5,0.1-14.2,0.1c-0.4,0-0.8,0-1.2,0c-0.6,0-0.8,0-0.9-0.3c0-0.1-0.6-0.2-0.9-0.2
		c-5.4,0-10.9,0.1-16.3,0.2h-0.3c-6.2,0.1-12.4,0.2-18.7,0.2c-0.3,0-0.9-0.1-0.9-0.1c0.1-0.5-0.6-0.4-1.2-0.4c-3.1,0-6.2,0.1-9.4,0
		c-4.5-0.1-9,0.2-13.4,0.2c-1.6,0-3.2,0-4.8,0c-5.2-0.2-10.6,0.1-15.9,0.1c-0.3,0-1,0-1-0.1c0-0.4-0.4-0.5-1.1-0.4
		c-6.3,0.3-12.6,0-19,0.2c-2.3,0.1-4.7,0.1-7,0.1c-0.5,0-1.1,0-1.6,0c-2.6,0-5.1,0-7.7,0c-0.3,0-0.9-0.1-0.9-0.2
		c0-0.3-0.3-0.4-0.9-0.4c-4.6,0.3-9.1,0-13.8,0.1c-3.6,0.1-7.1,0.2-10.7,0.3c-1.8,0-3.6-0.1-5.4-0.1c-2,0-4,0.1-6,0.2
		c-0.3,0-0.8-0.1-0.7-0.1c0-0.4-0.4-0.5-1.1-0.4c-6.5,0.3-13,0-19.5,0.2c-0.5,0-0.9,0-1.4,0c-0.3,0-0.7,0-1,0
		c-4.6,0.1-9.3,0.1-13.9,0.1c-0.3,0-0.9-0.1-0.9-0.2c0-0.3-0.3-0.4-1-0.3c-4.6,0.3-9.1-0.1-13.7,0.1c-0.2,0-0.4,0-0.6,0
		c-0.4,0-0.9,0-1.3,0c-7.1,0.3-14.1,0-21.2,0.3c-0.6,0-1.3,0.1-1.2-0.4c0,0-0.5-0.1-0.7-0.1c-1.8,0-3.7,0.1-5.5,0.1
		c-1.8,0-3.7-0.1-5.5-0.1c-3.2,0-6.3,0.1-9.5,0.3c-5.5,0.3-10.8-0.2-16.3,0.1c-0.3,0-0.9-0.1-0.9-0.2c0-0.3-0.4-0.4-1-0.3
		c-2.6,0.1-5.2,0.1-7.8,0.1h-0.6c-2.5,0-5.1,0.1-7.6,0c-0.8,0-1.7,0-2.5,0.1c-3.5,0.2-7.1,0.5-10.5,0c-4.4,0.3-8.7,0-13,0.1
		c-1.7,0-3.3,0.1-5,0.1c-0.2,0-0.5-0.2-0.7-0.3c0,0,0.1,0,0.1,0c-1.1,0-2.2-0.1-3.4-0.1c-0.1,0-0.2,0-0.3,0c-2.1,0-4.2,0.1-6.3,0
		c-2.4-0.2-4.9,0.1-7.4,0.2c-2.5,0.1-5,0-7.5,0.2c-0.6,0-1.1,0-1.7,0c-1.9,0-3.7-0.2-5.6-0.2c-2.8,0.1-5.6,0.1-8.4,0.3
		c-1.8,0.1-3.6,0.2-5.3,0.5c-0.8,0.2-2.4,0-2.5,0.8c0,0,0,0,0,0c-0.2,0.1-0.8,0.3-1.2,0.3c-1.3,0-1.7,1-3.2,0.8
		c-0.2,0-0.8,0.5-1.1,0.8c-0.2,0.2-0.2,0.7-0.5,0.8c-1.6,0.2-1.8,0.8-2.2,1.4c-0.1,0.1-0.4,0.3-0.7,0.3c-0.7,0-0.8,0.2-0.9,0.5
		c-0.5,1.2-1.2,2.3-1.2,3.5v119.7c0,0.4,0,0.8,0,1.2c0,0.1,0.1,0.3,0.3,0.4c0.4,0.2,1.4,0.2,1.4,0.4c0,0.3-0.7,0.5-1.4,0.6
		c-0.1,0-0.2,0.2-0.2,0.4c0,0.3,0,0.7,0,1v43.4c0,14.5,0,28.9,0,43.4c0,1,0.4,2,0.6,2.9c0,0.1,0.2,0.2,0.4,0.3
		c0.4,0.1,1.1,0.2,1.4,0.4c0.3,0.2,0.3,0.5,0.6,0.7c0.5,0.3,1,0.9,1.6,0.9c1.5,0,0.7,0.7,1.3,0.9c0.3,0.1,0.7,0.3,0.9,0.3
		c1-0.1,1.5,0.2,2.1,0.4c2.8,1,5.8,1.6,9.6,1.4c1.6-0.1,3.1-0.2,4.7-0.2c1.2-0.1,2.2,0.3,3.5,0.1c1-0.1,2.1-0.1,3.2,0.1
		c1,0.2,2.4-0.1,3.7-0.1c0.2,0,0.7,0.1,0.7,0.1c0,0.3,0.2,0.4,0.9,0.4c1-0.1,2.1-0.2,3.1-0.2c1.1,0,2.1,0.2,3.2,0.1
		c2.5-0.1,5-0.2,7.5-0.4c0.8-0.1,1.6,0,2.4,0c0.3,0,0.7,0,1,0c0.3,0,0.6,0,0.9,0c0.9,0,1.9,0,2.8-0.1c0.5-0.1,1.3-0.2,1.3,0.3
		c0,0.1,0.6,0.2,0.9,0.2c1.9-0.1,3.7,0,5.6,0c1.5,0,3-0.1,4.4-0.1c0.7,0,1.3-0.1,2-0.1c0.4,0,0.8,0,1.3,0c1.2,0,2.5,0,3.7,0
		c1.1,0.1,2.7-0.5,3.2,0.4c0.9,0,1.8,0.1,2.5-0.4c0.5-0.4,0.8-0.3,1.3-0.1c0.9,0.4,2.2,0.5,3.5,0.4c4.8-0.4,9.5-0.3,14.2-0.4
		c0.3,0,1,0.1,1,0.1c0,0.3,0.3,0.4,0.9,0.3c1-0.1,2.1-0.1,3.1-0.1c0.9,0,1.9,0.1,2.8,0.1c2.2-0.1,4.3-0.2,6.4-0.3
		c2.2-0.2,4.2,0.3,6.5,0c0.6-0.1,1.3-0.1,1.2,0.3c0,0,0.4,0.1,0.7,0.1c1.1,0,2.2-0.1,3.4-0.2c1,0,2.1,0.1,3.1,0.1
		c3.7,0,7.3-0.4,11-0.3c2.7,0.1,5.6,0,8.3,0.2c1.1,0.1,2.2,0.1,3.4,0.1c2.9,0,5.9-0.4,8.9-0.2c2.8,0.2,5.9-0.1,8.8-0.1
		c0.4,0,1,0.1,1,0.1c0,0.3,0.2,0.4,0.9,0.4c2.2-0.1,4.3-0.2,6.4-0.1c2.2,0.1,4.6-0.2,6.9-0.3c2.3-0.1,4.4,0.2,6.7,0
		c0.5-0.1,1.5-0.3,1.5,0.3c0,0.1,0.4,0.2,0.7,0.1c2-0.2,3.9,0.1,5.8,0c4.4-0.3,8.6-0.2,13-0.3c0.3,0,1,0,1,0.1
		c0,0.3,0.2,0.4,0.9,0.4c2.2-0.1,4.2-0.2,6.4-0.1c2.1,0.1,4.4-0.2,6.6-0.3c2.2-0.1,4.4,0,6.6-0.1c0.6,0,1.2-0.2,1.2,0.3
		c0,0.1,0.4,0.2,0.7,0.1c2.2-0.2,4.2,0.1,6.3-0.1c4.3-0.3,8.5-0.2,12.9-0.3c0.3,0,0.9,0.1,0.9,0.1c0,0.3,0.3,0.4,0.9,0.4
		c2.1-0.1,4.2-0.2,6.3-0.1c2.1,0.1,4.3-0.2,6.5-0.3c2.2-0.1,4.4,0,6.6-0.1c0.6,0,1.2-0.1,1.2,0.3c0,0,0.4,0.1,0.7,0.1
		c2.2-0.2,4.2,0,6.3,0c3.2,0,6.3-0.4,9.5-0.2c3,0.2,6.1-0.1,9.2-0.1c0.5,0,1,0,1,0.3c0,0.1,0.4,0.2,0.6,0.2c1.1,0,2.2-0.1,3.2-0.1
		c1,0,2,0.1,3,0.1c2.1-0.1,4.1-0.2,6.2-0.3c2-0.1,3.9,0.3,5.9,0c0.3,0,1,0,1,0.1c0.1,0.3,0.1,0.4,0.8,0.4c2-0.1,4-0.1,5.9-0.1
		c2.3,0.1,4.7-0.2,7-0.3c2.3-0.2,4.5,0.3,6.8,0c0.5-0.1,1.2-0.2,1.2,0.3c0,0.1,0.4,0.2,0.6,0.2c2.3-0.3,4.5,0.1,6.8,0
		c0.7-0.1,1.3,0,2-0.1c3.5-0.4,6.8,0.1,10.2-0.2c0.2,0,0.7,0,0.7,0.1c0,0.3,0.1,0.4,0.8,0.4c0.9-0.1,1.8-0.1,2.6-0.1
		c0.9,0,1.8,0.2,2.7,0.1c2.3-0.1,4.6-0.2,7-0.4c2.3-0.2,4.4,0.3,6.7,0c0.5-0.1,1.2-0.2,1.2,0.3c0,0.1,0.4,0.2,0.6,0.2
		c2.4-0.3,4.6,0.2,7-0.1c3.8-0.4,7.5,0,11.3-0.3c0.2,0,0.7,0,0.7,0.1c0,0.3,0.1,0.5,0.8,0.4c3.4-0.3,6.7,0.1,10.1-0.2
		c2-0.2,4-0.2,6.1-0.1c2.5,0.2,5.2,0,7.8-0.1c0.5,0,1.2-0.1,1.1,0.3c0,0.1,0.4,0.1,0.6,0.1c2.7,0,5.4,0,8.1-0.2
		c3.6-0.3,7.1,0,10.6-0.2c0.2,0,0.4,0.2,0.7,0.3c0.2,0.1,0.3,0.2,0.5,0.2c2.3-0.3,4.6,0,6.9-0.1c2.1-0.1,4.2-0.2,6.3-0.3
		c0.5,0,1.2-0.2,1.4-0.1c1.2,0.5,2.5,0,3.8,0.1c1.2,0,2.5,0.1,3.7,0.1c2.4,0.1,4.7-0.6,7.1-0.7c1.2-0.6,3.7,0,4.1-1.3
		c0,0,0.4,0,0.5,0c1.5-0.4,3.2-0.6,3.7-1.6c0.1-0.1,0.5-0.3,0.7-0.3c1-0.1,1.3-0.3,1.6-0.8c0.3-0.5,0.3-1.2,1.8-1.5
		c0.2,0,0.3-0.3,0.4-0.5c0.6-0.5,0.6-1,0.6-1.6c0-0.2,0.2-0.5,0.2-0.5c1.3-0.1,0.9-0.5,0.9-0.8c0-2.8,0-5.5,0-8.3s0.1-5.5,0-8.3
		c-0.1-2.7,0.7-5.4,0.6-8.2c0-0.9,0-1.7,0-2.6c-0.1-6.3,0-12.5,0-18.8c0-0.6,0.3-1.3-0.5-1.8c-0.3-0.2-0.3-0.7,0-0.9
		c0.8-0.6,0.4-1.1,0.5-1.6c0.1-0.5,0-1,0-1.5v-3.1c0-0.5,0.3-1.1-0.1-1.5c-0.5-0.5,0.1-0.9,0.1-1.3c-0.1-3.5,0.1-6.9-0.1-10.4
		c-0.2-3.5,0.7-6.9,0.6-10.4c0-11.2,0-22.5,0-33.7c0-0.4-0.2-0.9,0.1-1.2c1.2-1.2-0.4-2.5,1-3.6c-1.2-0.9-0.5-2-0.5-2.9
		c-0.1-5.5,0-11.1,0-16.6c0-0.7,0-1.5,0-2.2c0-0.6,0-1.2,0-1.8c0.1-1.3,0.2-2.6,0.4-4c0.6-2.6-0.4-5.2,0.7-7.9
		c0-5.4-0.1-10.7,0-16.1c0.2-5.3-0.7-10.6,0.5-16C896.9,308.7,896.9,301,896.9,293.3z"/>
	<g>
		<path class="st0" d="M457.8,784.5L420,865.2h-12.1l40-85.5c-2.3-2.1-4.1-4.8-5.1-8c-0.7-2.4-0.9-4.8-0.6-7.1l-57.4-25.1l-10.6-4.6
			l-12.1-5.3v-12l20,8.8l10.7,4.7l53.9,23.5c2.2-2.4,5-4.4,8.3-5.4c1.3-0.4,2.6-0.6,3.8-0.7l18.9-79.9l2.7-11.4l25-106.2
			c-3.3-2.9-5-7.4-3.9-12c1.6-6.6,8.2-10.6,14.7-9.1c6.6,1.5,10.6,8.1,9.1,14.7c-1.1,4.7-4.8,8.2-9.3,9.1l-24,101.8l-2.7,11.4
			l-19.8,84c3.7,2.2,6.6,5.7,8,10.2c2.9,9.5-2.6,19.6-12.1,22.5C462.8,784.7,460.2,784.8,457.8,784.5z"/>
	</g>
	<g>
		<path class="st0" d="M815.4,768.9c-8.8,2.7-18.1-2.3-20.8-11.2c-0.2-0.6-0.3-1.3-0.4-1.9l-105.5-17.2c-3.2,5.2-9.5,8.1-15.8,6.6
			c-2.1-0.5-3.9-1.4-5.5-2.7l-104.4,61.1c2.4,10-3.2,20.2-13.1,23.1c-6.9,2-13.9,0.1-18.8-4.5l-73.5,42.9h-21.7l89.7-52.4
			c-2.4-9.9,3.2-20.1,13.1-23.1c6.8-2,13.9-0.1,18.8,4.5l104.4-61.1c-0.3-1.8-0.2-3.6,0.2-5.5c0.8-3.3,2.7-6,5.1-8l-13.5-44.9
			c-8.5,0.1-16.4-5.4-19-13.9c-3.1-10.4,2.8-21.3,13.2-24.5c10.4-3.1,21.3,2.8,24.5,13.1c2.6,8.6-1,17.5-8.2,22.1l13.5,44.9
			c0.7,0.1,1.3,0.1,2,0.3c5.6,1.3,9.6,5.7,10.8,11L796,745c2-3.7,5.5-6.7,9.9-8c8.8-2.6,18.1,2.4,20.8,11.2
			C829.3,756.9,824.3,766.3,815.4,768.9z"/>
	</g>
	<g>
		<path class="st0" d="M588.7,663.7c-7.7,5.1-18,3-23.1-4.7c-0.4-0.5-0.6-1.1-0.9-1.7l-75.4,9.9l2.7-11.4l71.2-9.3
			c0.9-4.2,3.3-8,7.1-10.6c7.7-5,18.1-2.9,23.1,4.8C598.5,648.2,596.4,658.6,588.7,663.7z"/>
	</g>
	<g>
		<path class="st0" d="M948.2,865.2V240.7c0-8.9-7.2-16.2-16.2-16.2H362c-8.9,0-16.2,7.2-16.2,16.2v608.3H268
			c-8.9,0-16.2,7.2-16.2,16.2c0,0,0,0,0,0c0,60.7,49.4,110.2,110.2,110.2c0,0,0,0,0,0h475.8c0,0,0.1,0,0.1,0
			C898.8,975.4,948.2,926,948.2,865.2C948.2,865.2,948.2,865.2,948.2,865.2z M378.2,256.9h537.7v608.3c0,42.9-34.9,77.9-77.8,77.9
			h-0.1c-42.9-0.1-77.7-35-77.7-77.8c0-2.2-0.5-4.4-1.3-6.3c-2.5-5.8-8.2-9.9-14.9-9.9H378.2V256.9z M285.9,881.4H729
			c3.5,23.9,14.8,45.3,31.1,61.7H362c0,0,0,0,0,0C324.6,943.1,293.3,916.6,285.9,881.4z"/>
	</g>
	<g>
		<path class="st0" d="M759.6,705c-8.6,0-14.8-2.9-18.3-8.5c-9.3-14.8,4.7-41.8,6.4-44.8c4.5-8.4,9.2-14.5,14.4-18.6
			c0-0.1,0-0.2-0.1-0.3c-0.4-1.5-0.8-3-1.2-4.4c-13.5,20.3-31.7,37.5-53,49.3c-1.8,1-4,0.3-5-1.4c-1-1.8-0.3-4,1.4-5
			c22.2-12.3,40.9-30.8,54.1-52.7c-3.5-14.9-6-30.2-3.8-45.5c0.1-0.8,2.8-18.6,12.3-24.5c3.2-2,6.7-2.4,10.3-1.2
			c11.7,3.8,7.9,19.7,6.1,27.3l-0.4,1.8c-3.4,15.2-9.1,29.8-16.9,43.2c0.8,3.1,1.6,6.2,2.4,9.3c4.4-2,9.2-2.8,14.6-2.7
			c2.6,0.1,5.1,1.3,7.4,3.1c2.5-1.3,5.2-2.1,7.9-2.4c5.6-0.6,10.3,1.4,13.3,5.7c6.5-5.1,12.7-7.4,18.7-7.2
			c14.2,0.5,20.8,8.6,26.6,15.8c5.9,7.3,11,13.5,23.2,13.9c2,0.1,3.6,1.7,3.5,3.8c-0.1,2-1.8,3.6-3.8,3.5
			c-15.5-0.5-22.5-9.1-28.6-16.6c-5.6-6.9-10.4-12.8-21.2-13.1c-4.3-0.1-9.1,1.8-14.2,5.9c3.3,4.7,6.4,10.4,4.1,14.8
			c-1.5,2.9-4.9,4.4-9.9,4.2c-5.7-0.2-7.7-3.2-8.3-5.1c-1.9-5.1,2-11.9,4.4-14.9c-0.1-0.1-0.2-0.3-0.2-0.4c-1.5-2.4-3.8-3.4-6.9-3.1
			c-1.2,0.1-2.4,0.4-3.5,0.9c2.5,3.8,4,8.3,3.9,12c-0.2,5.8-4.1,9.4-10.4,9.1c-4.7-0.1-7.1-2.3-8.3-4.1c-3.2-4.7-1-11.2-0.7-12
			c0.8-2.2,2.3-4.4,4.1-6.2c-0.5-0.2-0.9-0.3-1.4-0.3c-4-0.1-8.2,0.3-12.5,2.6c0.5,2,1,4.1,1.5,6.1c0.4,1.5,0.9,3.3,1.4,5.4
			c3.9,14.4,10.4,38.6,1.7,50.4c-3.1,4.2-7.7,6.5-13.7,6.7C760.7,705,760.2,705,759.6,705z M764.1,641.1c-3.3,3.2-6.6,7.7-10,14.1
			c-6.7,12.4-11.6,29.5-6.6,37.5c2.3,3.7,6.7,5.3,13.6,5.1c3.7-0.2,6.4-1.4,8.1-3.8c6.6-9,0.5-31.9-2.9-44.2c-0.6-2.1-1.1-4-1.5-5.5
			C764.6,643.2,764.3,642.1,764.1,641.1z M808.8,650.2c0,0,0.4,0.3,1.8,0.3c2,0.1,2.9-0.2,3.2-0.4c0.1-0.8-0.5-2.5-2.9-6.1
			C809.5,646.3,808.3,649.2,808.8,650.2C808.8,650.2,808.8,650.2,808.8,650.2z M789.5,639.2c-1.2,1.2-2.1,2.5-2.5,3.6
			c-0.5,1.5-0.9,4.2-0.1,5.4c0.4,0.5,1.2,0.8,2.5,0.9c2.9,0.1,2.9-1,2.9-2.1C792.3,644.7,791.2,641.7,789.5,639.2z M773.3,554.1
			c-0.9,0-1.7,0.3-2.5,0.8c-4.9,3-8.1,13.5-9,19.4c-1.7,11.5-0.4,23.2,1.9,34.8c5.4-10.8,9.6-22.2,12.2-34l0.4-1.9
			c1.3-5.5,4-17-1.3-18.7C774.4,554.2,773.8,554.1,773.3,554.1z"/>
	</g>
	<g>
		<g>
			<path class="st1" d="M504.5,315.7c0,8.9,3.4,17.7-0.4,24.7c-6.8-1.8-13.5,0.8-18.8-1.8c0.5-4.4,0.7-6.1,0-10.7
				c-4.3-0.4-7.8,0.7-10.5-0.8c-2.5,4-0.5,8.2-1.3,12.4c4.8,4.4,12.4,6,16.9,10.7c1.2,0,2.1,0,3.1,0c2.9,3.8,8.5,4.8,10.9,9
				c2.5,7.2,2.3,14.1,1,21.2c-0.7,1.4,1.3,0.3,0.8,1.8c-1.2,5.7-1.4,12.9-5.5,15.6c-2.7-0.5-3.5,0.9-4.7,1.7
				c-6.4-0.1-16.1,2.5-21.9-0.4c-1.4-0.3-1.8,0.8-2.6,1.3c-8.5-1.7-17.2-3.1-19.5-11.1c1.7-6.1-1.4-13.3,0.8-20.1
				c7-2.2,14.2,1,20.2-0.8c-1.3,3.9,0.5,5.6-0.8,8.9c0.9,5.3,6.1,3.8,12.2,3.9c3.1-2.9-1.2-6.4,0.8-9c-3.3-6.3-10.7-8.6-17.3-11.6
				c-0.9-2.9-5.1-2.5-7.3-4.2c-1.8-4.6-6.1-6.5-7.8-11.1c1.3-10.5-2.3-25.1,3.5-32.8c2.3,0.1,3.6-0.7,3.8-2.6
				c11.2-1.8,19.4-0.3,29.4-1.3c2,0.3,1.4,1,3.4,0.4c3,1.3,6.3,2.2,9,3.5C502,314.5,503.4,314.8,504.5,315.7z"/>
			<path class="st1" d="M532.5,309.7c8.5,1,19.5,0.5,27.7,0.4c0.7,2.1,0.3,5.3,0.9,7.6c3.9,4.7,1.6,15.5,6.1,19.4
				c-1.4,5.2,4.3,10.2,2.5,14.2c1.6,1,1.4,3.8,3,4.8c-1,4.9,1.4,8.2,2.9,12.5c1.2-6.9,4.8-13.7,4.9-20.3c0.9-1.6,2.1-0.9,0.8-2.9
				c-0.1-1.6,2-0.8,2.1-2.1c-0.4-12.6,6.3-19.4,6.3-30.6c2-0.4,2.2-2.2,4-2.6c1.3,0,2.3,0.3,2.9,0.9c3.6-3.1,9.6,1,12.9-1.3
				c3.4-0.1,5.7,0.9,8.7,0c-0.3,9.4-0.3,19.4,0,30.7c-2,6.6,0.5,17.7,0.4,23.2c-2.5,9.6,0,21.7,0,30.5c0.3,2-1.2,2-0.8,3.9
				c-3.6-1.3-5.9,2.3-7.8-0.4c-3.9,1.8-6.6,0.5-10.8,0c-0.1-13.4-0.8-24.5,0.4-36.9c-1.2-5.6-1.4-10.4,0-15.8
				c-3.6,0.1-3.6,5.7-3,7.8c-0.9,3.4-3.5,5.2-2.9,10.3c0,1.2-1.3,1.2-1.6,2.1c-0.4,13-6.4,20.3-7.6,32.8c-6.8,0.4-10.3-1-16.9,0.4
				c-1.6-3-4.3-6.6-2.9-11.2c-1.7-3-3.3-8.2-3.3-11.7c-1.6-0.8-3.8-4.4-1.8-6.1c-2.2-0.9-0.7-5.9-2.7-7c-0.4-1.7,0.5-2.1,0.4-3.8
				c-2.9-2.5-2.6-7.9-3.6-12.4c-3.5,1.4-0.3,6.5-2.2,10.3c-0.1,1.7,1,2.1,0.9,3.9c-1.8,3-2,10.9,0,13.9c-1.3,7.3,0,16.7-0.9,24.1
				c-6.1-0.9-12.1,0.1-18.1,0c-2-3.8,0.9-7.3-0.9-11.2c2.1-7-1.4-17.8,0.9-25.3c-0.8-7.4-1.6-13.4,0.4-18.6
				C531.2,333.3,534,322.4,532.5,309.7z"/>
			<path class="st1" d="M654.2,309.3c10.9,1.3,23.2-0.3,32.4,0.4c-0.9,6.4,4.4,10.5,2.1,15.6c0.1,0.8,1.6,0.4,1.7,1.2
				c-0.8,6.8,1.7,13.2,3.3,19c-1.8,2.5,2.3,5.1,0.5,8.7c-0.4,1.6,1.6,0.8,1.7,1.7c0.1,1.6-0.5,2.3-0.9,3.4c0.1,0.9,1.6,0.4,1.7,1.3
				c0.4,12.1,4.7,26.4,5.9,37.8c-8.5,1.8-12.9-0.1-21,0.9c0.1-7.2-2.2-10-2.6-17.2c-3.8,0.4-5.6,3-9.6,3.3c-0.7,0.5-0.7,1.7-1.3,2.2
				c-4.6-1.3-4.9,1.3-7.9,2.5c0.5,3.9-1,5.6-1.3,8.9c-5.9,0.5-13.8,0.7-20.2-0.5c1.6-18.2,7.6-34,8.1-49.5c-0.4-1.4,1.3-0.7,1.2-1.7
				c-0.4-3-0.4-6.1,1.7-7.6C650.3,328,653.4,319.8,654.2,309.3z M665.2,369.1c3-2.6,8.9-2.1,10.9-5.5c-1.2-2.5-0.8-4.3-1.7-6.4
				c1.6-2.7-2.1-5.7-0.4-9.6c-1.7-0.4-1.6-3.3-0.9-4.7c-3.1-2.6,0.5-10.9-3.4-12.1C669.1,343.5,664.1,357.5,665.2,369.1z"/>
			<path class="st1" d="M723.8,308.4c17.3,1.2,35-1.7,49.1,2.6c1.6,3.6,3.4,7,4.9,10.9c0.4,4-2.2,8.9,0.5,11.9
				c-0.5,1.2-0.5,2.7-1.8,3.3c3.5,5.3-1.7,13.5,0.8,19.5c-1.3,1.7-2.1,3.9-2.5,6.8c-2,2.1-6.3,1.7-7.6,4.6
				c2.5,4.6,3.3,10.4,6.8,13.9c-0.4,6.5,4.6,10.5,5.1,17.5c-8.3,0.1-12.9,1-20.8,0.4c0-1.2,0-2.3,0-3.4c-1.3-1.3-3.4-3.8-2.5-6
				c-3.4-2.6-2.1-10-5.5-12.6c0.4-2.2-0.4-3.5-0.8-5.1c-1.6,0.4-3,1-4.2,1.7c-0.5,7.9-0.7,15-1,23.2c-6,3-13.3-0.4-19,1.3
				c-2-8.5,0-19.1-1.6-26.6c0.1-1,1-1.4,1.2-2.6c-1.6-6.5-0.5-19.8-1.2-27C724.4,329.3,723.9,321.9,723.8,308.4z M745.4,350.2
				c0.3,1.8-1.6,1.6-1,3.4c3.9-2.7,10.9-2.1,12.8-6.6c0.5-6.4-1.4-13.3,0-19c-3.5-2.7-8.6-0.8-12.2-1.4
				C746.4,333.1,742.9,343.4,745.4,350.2z"/>
			<path class="st1" d="M794.2,308.4c17.7,0.5,35.4,0.8,54,0c0.4,6.6-1.2,10.9,0,18c-4.2,1.7-10.9,0-15.8,0.8
				c-0.9,7.9-1.4,15.9,0,24c0.1,1.6-0.9,2.2-1.2,3.4c0.8,9.9,0,26.7,1.2,36.2c-0.4,1.3-1.3,2.1-1.7,3.4c0.4,1.4,2.2,3,0.9,4.7
				c-5.6,0.3-12,0.5-19.7,0.8c-3.8-15,0.5-33.1-1.7-50.3c0.4-1.7,1.2-3,1.3-5.1c-1.6-5.6-1-11.6-0.4-16.5c-5.3-1-9.4,0.1-16.7-0.5
				C794,321.1,795.3,315.3,794.2,308.4z"/>
		</g>
	</g>
	<g>
		<g>
			<path class="st1" d="M485.7,464.3c1.1,0.8,1.6,1.8,1.8,3.2v0.9c0,1.1-0.5,2.2-1.4,3.3c-0.4,0.4-0.7,0.7-1.1,0.9
				c-0.4,0.3-0.8,0.6-1.2,0.8c-0.5,0.4-0.9,0.6-1.4,0.9c-0.4,0.2-0.8,0.5-1.3,0.9c-0.8,0.6-1.6,1-2.4,1.4c-0.8,0.4-1.6,0.7-2.4,1.1
				c-0.5,0.2-1,0.4-1.4,0.6c-0.5,0.2-1,0.3-1.5,0.5c-0.4,0.1-0.8,0.1-1.2,0.2c-0.4,0.1-0.8,0.1-1.2,0.1c-0.6-0.1-1.1-0.1-1.5-0.1
				c-0.5,0-1,0-1.5,0c0,0.1,0,0.1,0.1,0.1h-2.9c-0.8,0-1.6-0.1-2.4-0.3s-1.5-0.5-2.2-0.8c-0.7-0.3-1.4-0.7-2-0.9
				c-0.7-0.3-1.3-0.6-1.9-0.8c-1.8-0.8-3.3-2-4.5-3.4c-0.2-0.3-0.4-0.5-0.7-0.7c-0.2-0.2-0.5-0.5-0.8-0.7c-0.3-0.3-0.5-0.5-0.7-0.8
				c-0.2-0.2-0.5-0.5-0.8-0.8c-1.1-0.8-1.9-2-2.6-3.6c-0.6-1.1-1-2.2-1.5-3.4c-0.4-1.1-0.7-2.3-0.8-3.5c-0.1-0.5-0.2-1-0.3-1.5
				c0-0.5-0.1-1-0.3-1.5c-0.4-1.5-0.6-3.1-0.4-4.8c0.1-0.6,0.1-1.3,0.2-1.9c0.1-0.7,0.2-1.3,0.3-1.9c0.2-0.8,0.4-1.5,0.6-2.2
				c0.2-0.7,0.5-1.4,0.8-2.2c0.1-0.4,0.3-0.7,0.5-1.1c0.2-0.4,0.4-0.8,0.6-1.1c0.4-0.6,0.8-1.1,1.2-1.6c0.3-0.5,0.7-1.1,1.1-1.7
				c0.9-1.7,2.2-3.2,4-4.5c0.8-0.6,1.5-1.1,2.3-1.6s1.6-1,2.5-1.4c0.8-0.3,1.6-0.7,2.4-1c0.8-0.3,1.7-0.7,2.6-0.9
				c0.6-0.1,1.3-0.3,1.9-0.4c0.6-0.1,1.3-0.2,2-0.2c0.2,0,0.4,0,0.7-0.1c0.2,0,0.5-0.1,0.8-0.1h1.3c1.3,0,2.5,0.1,3.8,0.3
				c1.5,0.2,3.2,0.7,5,1.5c1.3,0.6,2.5,1.2,3.6,1.9c1.1,0.7,2.2,1.6,3.3,2.6c0.3,0.3,0.5,0.5,0.7,0.8c0.2,0.2,0.5,0.5,0.7,0.8
				c0.6,0.6,0.9,1.4,1.2,2.4c0.3,1.1,0.1,2.1-0.5,3.2c-0.6,1.1-1.5,1.7-2.8,2c-1.8,0.4-3.4,0-4.6-1.4c-0.4-0.4-0.9-0.8-1.3-1.2
				c-0.5-0.4-1-0.8-1.5-1.1c-0.8-0.5-1.6-0.9-2.4-1.3c-0.8-0.3-1.7-0.6-2.6-0.7c-0.9-0.2-1.8-0.3-2.7-0.4c-0.9,0-1.7,0-2.6,0.2
				c-2.7,0.4-5,1.3-7,2.9c-0.4,0.4-0.7,0.7-1.1,1c-0.4,0.3-0.7,0.6-1,1c-0.6,0.7-1.2,1.4-1.8,2.2c-0.6,0.7-1.1,1.5-1.4,2.4
				c-0.6,1.3-0.9,2.7-1.1,4.2c-0.1,0.7-0.2,1.4-0.2,2c0,0.7,0,1.3,0,2c0.1,0.8,0.1,1.5,0.2,2.3c0.1,0.7,0.2,1.5,0.5,2.3
				c0.2,0.6,0.5,1.1,0.7,1.7c0.3,0.6,0.6,1.1,1.1,1.6c0.4,0.6,0.9,1.2,1.4,1.7c0.4,0.6,0.9,1.1,1.4,1.5c0.5,0.5,1.1,0.9,1.6,1.3
				c2.2,1.5,4.5,2.5,7,2.7c0.3,0.1,0.5,0.1,0.8,0.2c0.2,0,0.5,0.1,0.9,0.1c1,0,2.1-0.2,3.4-0.5c0.6-0.2,1.3-0.4,1.9-0.6
				c0.6-0.2,1.2-0.5,1.8-0.8c1.6-0.8,2.9-1.8,4-2.9c0.2-0.1,0.4-0.3,0.6-0.5c0.2-0.2,0.4-0.3,0.6-0.5c0.1-0.1,0.3-0.1,0.4-0.2
				c0.1,0,0.3-0.1,0.4-0.2c0.8-0.2,1.5-0.3,2.3-0.3C484.3,463.4,485,463.7,485.7,464.3z"/>
			<path class="st1" d="M540.4,447.5c0.1,0.4,0.2,0.8,0.3,1.3c0,0.4,0.1,0.8,0.2,1.3c0.1,1.1,0.1,2.1,0,3.2
				c-0.1,1.1-0.1,2.1-0.1,3.2c0,0.4,0,0.7,0,1c0,0.4-0.1,0.7-0.2,1.1c-0.1,0.6-0.3,1.1-0.4,1.5c-0.1,0.5-0.2,1-0.4,1.5
				c-0.1,0.4-0.2,0.9-0.5,1.6l-0.9,1.9c-0.1,0.1-0.2,0.2-0.3,0.3c-0.1,0-0.2,0.1-0.3,0.3c0,0.1,0,0.1-0.1,0.2c0,0.1-0.1,0.2-0.1,0.3
				c-0.5,0.8-1,1.6-1.5,2.4c-0.5,0.8-1.1,1.6-1.7,2.4c-0.4,0.5-0.9,0.9-1.3,1.4c-0.5,0.4-0.9,0.8-1.3,1.3c-0.3,0.2-0.5,0.4-0.8,0.7
				c-0.2,0.2-0.5,0.4-0.8,0.6c-0.4,0.1-0.6,0.3-0.9,0.5c-0.2,0.2-0.5,0.3-0.9,0.5c-0.6,0.4-1.2,0.6-1.8,0.9
				c-0.7,0.2-1.3,0.5-1.9,0.8c-0.8,0.4-1.6,0.6-2.4,0.8c-0.8,0.2-1.6,0.4-2.4,0.6c-0.7,0.1-1.4,0.2-2.1,0.3
				c-0.7,0.1-1.4,0.1-2.2,0.1c-0.9,0-1.8-0.1-2.6-0.3c-0.6-0.1-1.1-0.2-1.6-0.3c-0.5-0.1-1-0.3-1.6-0.4c-1.4-0.3-2.9-0.8-4.4-1.6
				c-0.4-0.2-0.8-0.4-1.2-0.6c-0.4-0.2-0.8-0.4-1.2-0.7c-0.5-0.3-0.9-0.7-1.4-1c-0.4-0.3-0.8-0.7-1.2-1.2c-0.1-0.3-0.3-0.5-0.6-0.7
				c-0.2-0.2-0.5-0.4-0.7-0.6c-0.4-0.5-0.9-0.9-1.3-1.4c-0.5-0.4-0.9-0.9-1.3-1.5c-0.7-0.8-1.2-1.6-1.6-2.4
				c-0.4-0.8-0.8-1.6-1.2-2.4c-0.4-0.8-0.7-1.6-0.9-2.5c-0.1-0.6-0.3-1.2-0.4-1.8c-0.1-0.6-0.2-1.2-0.4-1.7
				c-0.1-0.6-0.2-1.2-0.3-1.8c0-0.6-0.1-1.2-0.1-1.8c0-0.3,0-0.6,0-0.8c0-0.3,0-0.6-0.1-0.9c-0.1-0.3-0.1-0.7,0-1.2
				c0.1-0.3,0.2-0.6,0.2-0.9c0-0.2-0.1-0.5-0.1-0.7c0.1-0.6,0.1-1.1,0.2-1.6c0.1-0.5,0.2-1.1,0.3-1.6c0.6-2.1,1.3-4,2.3-5.7
				c0.8-1.4,1.7-2.6,2.5-3.7c1.3-1.7,2.9-3.2,4.7-4.4c2.3-1.7,4.8-2.9,7.6-3.8c1.7-0.6,3.5-0.9,5.4-0.9c0.3,0,0.6,0,0.8-0.1
				c0.3-0.1,0.7-0.1,1,0c0.1,0.1,0.3,0.1,0.4,0.1c1.1-0.1,2.2,0,3.2,0.2c1,0.2,2,0.5,3.1,0.7l1.9,0.6c2.5,1,4.7,2.3,6.5,3.9
				c0.2,0.1,0.4,0.3,0.6,0.5s0.4,0.4,0.6,0.5c0.9,1,1.8,2,2.5,3.2c0.4,0.7,0.8,1.4,1.3,2c0.4,0.6,0.8,1.3,1.3,1.9
				c0.6,0.8,1,1.8,1.4,2.8c0.1,0.6,0.3,1.1,0.5,1.6C540.1,446.4,540.3,446.9,540.4,447.5z M530.4,460.4c0.6-1,0.9-2,1.1-3
				c0.2-1,0.3-2.1,0.4-3.2c0-0.5,0-1,0-1.4c0-0.5-0.1-0.9-0.2-1.3c0-0.6-0.1-1.3-0.3-1.9c-0.2-0.6-0.3-1.3-0.5-1.9
				c-0.3-0.6-0.6-1.1-0.8-1.7c-0.3-0.6-0.6-1.2-0.9-1.7c-0.9-1.3-2.1-2.6-3.6-3.8c-2.7-2-5.6-3.1-8.7-3.2H515c-1.5,0-3,0.3-4.5,0.9
				c-0.4,0.1-0.7,0.3-1.1,0.5c-0.4,0.2-0.8,0.4-1.1,0.6c-1.1,0.7-2.1,1.6-3,2.6c-0.6,0.7-1.2,1.5-1.7,2.3c-0.5,0.8-1,1.6-1.6,2.4
				c-0.7,1-1.1,2.3-1.3,3.7v4.4c0,0.6,0.1,1.2,0.2,1.8c0.1,0.6,0.2,1.1,0.4,1.7c0.6,2.3,1.7,4.4,3.4,6.2c0.9,1.1,1.9,2,2.9,2.6
				c0.2,0.1,0.4,0.3,0.6,0.4c0.2,0.1,0.3,0.2,0.5,0.4c0.6,0.1,1.1,0.3,1.6,0.5s1.1,0.4,1.6,0.6c0.1,0.1,0.4,0.1,0.8,0.1
				c0.6,0.1,1.1,0.2,1.6,0.3c0.5,0.1,1,0.1,1.6,0h0.8c0.4,0.1,0.8,0.1,1.3,0c0.4-0.1,0.8-0.1,1.3-0.2c2.9-0.6,5.6-2.1,8-4.3
				c0.6-0.4,1-0.9,1.4-1.5C529.2,462.6,529.8,461.6,530.4,460.4z"/>
			<path class="st1" d="M584.9,432.2c0,0.7,0,1.4-0.1,2c0,0.6-0.1,1.3-0.1,2v7.9c0,0.4,0,0.7,0.1,1.1c0,0.4,0,0.8-0.2,1.1
				c-0.1,0.1-0.1,0.3-0.1,0.4c0,0.1,0.1,0.2,0.1,0.4v6.4c0,0.2,0,0.4-0.1,0.6c0,0.2,0,0.4,0.2,0.5c0.1,0.1,0.1,0.3,0.1,0.4
				c0,0.1-0.1,0.2-0.1,0.4v14c0,0.3,0,0.5-0.1,0.8c0,0.2,0,0.5,0.1,0.9c0.1,0.3,0.1,0.6,0.1,0.8c0,0.3,0,0.6,0,0.9v1.7
				c0,0.7-0.1,1.2-0.2,1.6c-0.1,0.2-0.3,0.4-0.4,0.7c-0.1,0.2-0.2,0.4-0.4,0.6c-0.1,0.1-0.1,0.2-0.2,0.3c-0.1,0.1-0.1,0.2-0.2,0.3
				c-0.4,0.4-0.8,0.6-1.2,0.8c-0.5,0.2-0.9,0.4-1.3,0.5c-0.8,0.1-1.6,0-2.3-0.4c-0.5-0.3-0.9-0.8-1.2-1.3c-0.2-0.3-0.4-0.6-0.6-0.8
				c-0.2-0.3-0.4-0.6-0.6-0.8c-0.4-0.6-0.7-1.1-1.1-1.5c-0.4-0.5-0.7-1-1.1-1.5c-0.8-1.1-1.5-2.3-2.2-3.7c-0.6-1.3-1.4-2.7-2.4-4
				l-0.5-0.5l-1.9-2.5c-0.1-0.3-0.3-0.6-0.6-0.9c-0.2-0.2-0.5-0.5-0.8-0.8c-1-0.8-2.1-1.2-3.3-1.2c-1.5,0.1-2.6,0.8-3.2,1.9
				c-0.2,0.4-0.4,0.7-0.5,1.1c-0.1,0.4-0.2,0.8-0.1,1.2c0,0.6,0,1-0.1,1.4c-0.1,0.1-0.1,0.4-0.1,0.6v8.2c0,0.4,0,0.7-0.1,1
				c-0.1,0.4-0.1,0.7-0.1,1.1c-0.6,1.7-1.6,2.8-3,3.3c-1.7,0.4-3.2,0.1-4.4-1.1c-0.5-0.5-0.8-1.1-1.1-1.7c-0.2-0.5-0.3-1.1-0.3-1.8
				c0-2.1,0-4.2-0.1-6.3c0-2.1-0.1-4.1-0.1-6.3c0-0.8,0-1.7,0.1-2.6c0-0.9,0.1-1.8,0.1-2.7v-0.6c0.1-0.3,0.2-0.5,0.2-0.8
				c0-0.2-0.1-0.5-0.1-0.8c0.1-0.6,0.1-1.2,0-1.8c0-0.3,0-0.7,0.1-1c0-0.3,0-0.6-0.2-1c-0.1-0.1-0.1-0.2-0.1-0.3
				c0-0.1,0.1-0.2,0.1-0.3v-1.4c0-2.5,0-5.1-0.1-7.6c0-2.6-0.1-5.1-0.1-7.6c0-0.3,0-0.5,0.1-0.7c0-0.2,0.1-0.5,0.1-0.7
				c0.1-1.2,0.6-2.2,1.4-3.2c0.2-0.2,0.4-0.4,0.7-0.5c0.2-0.1,0.5-0.3,0.9-0.4c0.2,0,0.5-0.1,0.7-0.2h1.1c1.3,0.3,2.4,1.1,3.2,2.4
				c0.7,1.1,1.4,2.1,2,3.2c0.7,1.1,1.3,2.1,2,3.3c0.8,1.2,1.5,2.3,2.2,3.4c0.7,1.1,1.4,2.2,2.2,3.4c1.3,1.9,3,3.2,5,3.8
				c0.2,0.1,0.4,0.2,0.7,0.2c0.2,0,0.4,0,0.6,0.1c0.3-0.1,0.6-0.2,0.9-0.3c0.2-0.1,0.5-0.2,0.8-0.4c0.5-0.4,0.9-1.1,1.2-2
				c0.3-0.8,0.5-1.5,0.5-2.1c0-0.3,0-0.5,0.1-0.5c0.1-0.3,0.1-0.9,0.1-1.6v-4.4c0-0.3,0-0.7,0.1-1.1c0-0.4,0.1-0.8,0.2-1.2v-1.1
				c0-0.7,0.1-1.4,0.3-2c0.2-0.6,0.5-1.2,1.1-1.8c0.6-0.6,1.3-0.9,2.1-1.2h1.3c1,0,1.8,0.3,2.5,0.8c0.7,0.6,1.2,1.3,1.6,2.3
				C584.8,431.3,584.9,431.7,584.9,432.2z"/>
			<path class="st1" d="M623.9,428c0.9,0.6,1.6,1.3,2,2.1c0.5,0.8,0.6,1.8,0.5,2.7c-0.3,1.4-0.9,2.5-1.8,3.2
				c-0.9,0.7-1.9,1.1-2.8,1.2c-0.4,0-0.8,0-1.3,0s-0.8,0.1-1.3,0.2c-1.9,0.4-3.4,1.4-4.4,3c-0.8,1.2-1.3,2.7-1.5,4.4
				c-0.1,0.8-0.2,1.7-0.2,2.5c0,0.8,0.1,1.6,0.1,2.5c-0.1,0.6-0.1,1.1-0.1,1.6c0,0.5,0.1,1,0.1,1.5c0,0.4,0,0.7-0.1,0.9
				c0,0.3,0,0.6,0.2,0.9c0.1,0.1,0.1,0.3,0.1,0.4c0,0.1-0.1,0.2-0.1,0.4v4.8c0,0.2,0,0.4,0.1,0.6c0,0.2,0,0.4-0.2,0.6
				c-0.1,0.1-0.1,0.2-0.1,0.3c0,0.1,0.1,0.2,0.1,0.4v2c-0.1,0.4-0.1,0.7-0.1,1.1c0,0.4,0,0.7-0.2,1.1c-0.1,0.2-0.1,0.5-0.1,0.9v4.1
				v3.4c0,1.2-0.4,2.2-1.3,3.2c-0.7,0.7-1.6,1.2-2.7,1.4c-0.4,0.1-0.7,0.1-0.9,0c-0.5-0.1-0.9-0.3-1.3-0.5c-0.4-0.2-0.7-0.5-1-0.9
				c-0.1-0.1-0.2-0.1-0.3-0.2c-0.1,0-0.2-0.1-0.3-0.2c-0.8-1-1.2-2.3-1.2-3.8c0.1-2.7,0.1-5.3,0.1-7.9c0-2.6,0-5.2,0-7.9
				c0-0.4,0-0.9,0-1.3c0-0.5-0.1-0.9-0.2-1.3c-0.1-0.1-0.1-0.2-0.1-0.3c0,0,0.1-0.1,0.1-0.3v-3.2c-0.1-0.1-0.1-0.3,0-0.5
				c0.1-0.2,0.1-0.3,0.2-0.5c-0.1-0.2-0.2-0.4-0.2-0.6s0-0.4,0-0.6c-0.1-0.7-0.1-1.4-0.1-2c0-0.7,0-1.3-0.1-2
				c-0.1-2.2-0.8-4.1-1.9-5.9c-1.1-1.4-2.6-2.3-4.4-2.7c-0.1-0.1-0.3-0.1-0.4-0.1c-0.1,0-0.2,0.1-0.4,0.1h-1.6
				c-1.3,0-2.6-0.4-3.7-1.2c0-0.1,0-0.1-0.1-0.1c0,0-0.1,0-0.1-0.1c-0.7-0.7-1.1-1.5-1.3-2.3c-0.1-0.8-0.1-1.6,0.2-2.3
				c0.2-0.7,0.7-1.4,1.4-1.9c0.7-0.6,1.5-0.9,2.4-1.1h5c0.5-0.1,0.9-0.1,1.4-0.1c0.4,0,0.8,0,1.3-0.2h0.4c1.2,0,2.4,0,3.5,0
				c1.2,0,2.3,0,3.5-0.1c0.6,0,1,0,1.3-0.1h0.8h4.7h0.2c1,0.1,1.9,0.2,2.8,0.2c0.9,0,1.8-0.1,2.7-0.1
				C622.5,427.4,623.2,427.6,623.9,428z"/>
			<path class="st1" d="M663.6,457.2c-0.6,0.8-1,1.5-1.3,2.3c-0.4,1.7-0.4,3.2,0.2,4.6c0.8,2,1.8,4,3,6c0.2,0.4,0.4,0.7,0.6,0.9
				c0.2,0.3,0.4,0.6,0.6,0.9c0.1,0.2,0.2,0.5,0.3,0.7c0.1,0.3,0.2,0.6,0.3,0.8c0,0.4,0,0.8-0.1,1.3c0,0.4-0.1,0.8-0.3,1.2
				c-0.6,1.6-1.8,2.6-3.5,3c-0.9,0.3-1.9,0.2-2.9-0.3c-1.1-0.5-1.8-1.2-2.3-2.2c-0.7-1.2-1.2-2.2-1.5-3.2c-0.1-0.4-0.3-0.8-0.5-1.2
				c-0.2-0.4-0.4-0.8-0.6-1.1c-0.2-0.5-0.4-1-0.6-1.5c-0.2-0.5-0.4-1-0.6-1.6c-0.4-1.1-0.9-2-1.8-2.7c-1.4-1.2-3-1.6-4.7-1.4
				c-0.9,0.1-1.7,0.5-2.4,0.9c-1.6,1.2-2.7,2.7-3.2,4.5c-0.1,0.4-0.1,0.7-0.2,1c0,0.4-0.1,0.7-0.1,1.1c0,0.4,0,0.7-0.1,0.9
				c-0.1,0.1-0.1,0.3-0.1,0.4c0,0.1,0.1,0.3,0.1,0.4v1.8c-0.6,2.1-1.9,3.4-3.9,3.9h-1.6c-0.4-0.1-0.8-0.2-1.2-0.5
				c-1.5-0.8-2.4-2.1-2.5-3.9c-0.1-0.3-0.1-0.6-0.1-1.1v-4.3c0-0.4,0-0.8,0.1-1.2c0-0.4,0-0.8-0.2-1.2c0-0.8,0-1.6-0.1-2.4
				c-0.1-0.8,0-1.6,0.1-2.4c0-0.3,0.1-0.6,0.2-0.8c0.1-0.6,0.2-1,0.2-1.3c-0.1-0.8-0.1-1.5,0-2.3c0-0.3,0-0.7-0.1-0.9
				c-0.1-0.3-0.1-0.6-0.1-0.9c0-0.8,0-1.5-0.1-2.2c0-0.7-0.1-1.4-0.1-2.2c0-0.8,0-1.5,0.1-2.2c0-0.7,0.1-1.4,0.1-2.1
				c0-0.5,0-0.9,0.1-1.2c0.1-0.1,0.1-0.4,0.1-0.7v-9.1c0-0.5-0.1-0.8-0.2-1.1v-0.6v-2.1c0-1.5,0.7-2.8,2-3.8
				c0.3-0.3,0.7-0.6,1.2-0.6c0.4-0.1,0.8-0.1,1.3-0.2c0.4,0,0.8,0,1.3-0.1c0.4,0,0.8,0,1.2,0.1c0.7,0.1,1.4,0.2,2,0.2
				c0.7,0,1.3,0,2,0.1h4c0.3,0,0.6,0,0.8,0c0.3,0,0.6,0,0.8,0.1c0.3,0.1,0.7,0.1,1.2,0.1c0.8-0.1,1.7,0,2.5,0.2
				c0.8,0.2,1.6,0.4,2.4,0.8c0.4,0.1,0.8,0.3,1.2,0.4c2,0.7,3.8,1.9,5.5,3.6c2,2.1,3.5,4.6,4.3,7.6c0.1,0.6,0.3,1.2,0.4,1.8
				c0.1,0.6,0.2,1.2,0.4,1.8c0.1,0.4,0.2,0.7,0.2,1.1c0,0.4-0.1,0.8-0.1,1.1c-0.1,1-0.2,1.9-0.3,2.8c-0.1,0.9-0.3,1.8-0.7,2.7
				c-0.4,1-0.8,1.9-1.2,2.8C664.8,455.5,664.3,456.4,663.6,457.2z M650.5,436.8c-0.6,0-1.1,0-1.5,0.1c-0.5,0-1,0.1-1.5,0.3
				c-1.4,0.2-2.5,0.7-3.4,1.5c-0.8,0.6-1.3,1.5-1.7,2.5c-0.1,0.4-0.2,0.8-0.3,1.3c-0.1,0.4-0.1,0.9-0.2,1.4v3v2
				c0.1,0.3,0.1,0.5,0.2,0.7c0,0.2,0.1,0.5,0.2,0.7c0.1,0.8,0.5,1.4,1.1,1.8l1.3,0.9c0.8,0.6,1.6,1,2.3,1.1c0.1,0,0.1,0,0.2,0.1
				c0,0,0.1,0.1,0.2,0.1h2.9c1.1,0,2.1-0.2,3.2-0.5c1.9-0.8,3.3-2.1,4.3-4.1c0.5-1,0.7-2.1,0.7-3.5c0.1-1.7-0.3-3.2-1.3-4.6
				c-0.8-1.5-2-2.6-3.4-3.5C652.8,437.3,651.8,436.9,650.5,436.8z"/>
			<path class="st1" d="M713.8,471.6c0.3,0.6,0.5,1.2,0.5,1.8c0.1,1.1-0.1,2.2-0.6,3.3c-0.8,1.3-2,2.1-3.8,2.3
				c-1.2,0.2-2.4-0.2-3.6-1.2c-0.6-0.6-1-1.2-1.3-1.8c-0.3-0.7-0.7-1.4-1.3-2.1c-0.1-0.2-0.3-0.4-0.5-0.7c-0.2-0.2-0.3-0.5-0.5-0.7
				c-0.4-0.3-0.7-0.5-0.9-0.7c-0.3-0.2-0.6-0.5-0.8-0.7c-0.4-0.3-0.8-0.5-1.4-0.7c-1.9-0.8-3.7-1.1-5.6-0.8
				c-0.9,0.1-1.8,0.3-2.6,0.6c-0.8,0.3-1.8,0.7-2.7,1.2c-1,0.5-1.8,1.1-2.3,1.6c-0.3,0.2-0.5,0.5-0.7,0.7c-0.4,0.4-0.6,0.8-0.9,1.3
				c-0.2,0.4-0.5,0.8-0.8,1.3c-0.5,0.8-1.1,1.5-1.8,2c-0.7,0.6-1.5,0.8-2.4,0.8h-0.7c-0.3-0.1-0.5-0.3-0.8-0.4
				c-0.2-0.1-0.5-0.2-0.8-0.4c-1.5-0.8-2.3-2.1-2.4-3.8c-0.1-0.7,0-1.5,0.2-2.3c0.3-1,0.6-1.9,0.9-2.8c0.2-0.9,0.5-1.9,0.9-2.8
				c0.1-0.3,0.3-0.5,0.4-0.8c0.1-0.2,0.2-0.5,0.4-0.8c0.6-0.9,1-1.8,1.3-2.8c0.3-0.9,0.6-1.9,0.9-2.9c0.1-0.8,0.3-1.5,0.6-2.2
				c0.2-0.7,0.5-1.3,0.8-2c0.1-0.3,0.2-0.6,0.3-0.9c0.1-0.2,0.2-0.5,0.3-0.8c0.3-0.8,0.6-1.6,0.9-2.4c0.2-0.8,0.5-1.6,0.8-2.4
				c0.5-1.2,0.9-2.4,1.4-3.6c0.4-1.2,0.8-2.4,1.3-3.6c0.3-0.7,0.5-1.4,0.7-2.1c0.2-0.7,0.4-1.4,0.6-2.2c0.2-0.8,0.4-1.5,0.7-2.2
				c0.2-0.7,0.5-1.4,0.7-2.2c0.2-0.6,0.4-1.1,0.6-1.6c0.2-0.5,0.3-1.1,0.5-1.6c0.3-0.7,0.6-1.3,1.1-1.7c1.3-1.5,3-1.9,5-1.2
				c1.2,0.4,2.1,1.3,2.6,2.6c0.3,1.1,0.6,2.1,0.8,2.9c0.3,0.8,0.6,1.6,0.9,2.4c0.2,0.8,0.5,1.7,0.8,2.5c0.3,0.8,0.7,1.7,0.9,2.6
				c0.3,0.9,0.6,1.7,0.9,2.6c0.9,2.2,1.8,4.5,2.5,6.8c0.8,2.3,1.5,4.6,2.3,6.9c0.3,0.8,0.6,1.6,0.9,2.4c0.3,0.8,0.6,1.6,0.9,2.4
				l2.2,6c0.3,0.8,0.5,1.5,0.8,2.3C713.1,470,713.4,470.8,713.8,471.6z M694.9,459.9c0.3,0,0.7,0,1.1-0.1c0.3-0.1,0.7-0.1,1.1-0.2
				c0.6-0.1,1-0.5,1.4-1.2c0.2-0.4,0.3-0.8,0.3-1.3s-0.1-0.8-0.2-1.3c-0.3-0.9-0.5-1.8-0.8-2.6c-0.2-0.8-0.5-1.8-0.7-2.7
				c-0.1-0.6-0.3-1-0.6-1.3c-0.2-0.3-0.5-0.6-0.9-1c-0.4-0.2-0.8-0.2-1.3-0.1c-0.4,0.3-0.6,0.6-0.9,0.9c-0.2,0.4-0.4,0.7-0.6,1.1
				c-0.5,1-0.9,2.1-1.1,3.2c-0.2,1.1-0.5,2.2-0.9,3.2c-0.1,0.5-0.1,0.9,0.1,1.3c0.1,0.3,0.3,0.5,0.4,0.6l0.7,0.7
				c0.4,0.3,0.7,0.4,0.9,0.4c0.3,0.1,0.7,0.1,0.9,0.2C694.2,459.9,694.5,459.9,694.9,459.9z"/>
			<path class="st1" d="M761.2,464.3c1.1,0.8,1.6,1.8,1.8,3.2v0.9c0,1.1-0.5,2.2-1.4,3.3c-0.4,0.4-0.7,0.7-1.1,0.9
				c-0.4,0.3-0.8,0.6-1.2,0.8c-0.5,0.4-0.9,0.6-1.4,0.9c-0.4,0.2-0.8,0.5-1.3,0.9c-0.8,0.6-1.6,1-2.4,1.4c-0.8,0.4-1.6,0.7-2.4,1.1
				c-0.5,0.2-1,0.4-1.4,0.6c-0.5,0.2-1,0.3-1.5,0.5c-0.4,0.1-0.8,0.1-1.2,0.2c-0.4,0.1-0.8,0.1-1.2,0.1c-0.6-0.1-1.1-0.1-1.5-0.1
				c-0.5,0-1,0-1.5,0c0,0.1,0,0.1,0.1,0.1h-2.9c-0.8,0-1.6-0.1-2.4-0.3s-1.5-0.5-2.2-0.8c-0.7-0.3-1.4-0.7-2-0.9
				c-0.7-0.3-1.3-0.6-1.9-0.8c-1.8-0.8-3.3-2-4.5-3.4c-0.2-0.3-0.4-0.5-0.7-0.7c-0.2-0.2-0.5-0.5-0.8-0.7c-0.3-0.3-0.5-0.5-0.7-0.8
				c-0.2-0.2-0.5-0.5-0.8-0.8c-1.1-0.8-1.9-2-2.6-3.6c-0.6-1.1-1-2.2-1.5-3.4c-0.4-1.1-0.7-2.3-0.8-3.5c-0.1-0.5-0.2-1-0.3-1.5
				c0-0.5-0.1-1-0.3-1.5c-0.4-1.5-0.6-3.1-0.4-4.8c0.1-0.6,0.1-1.3,0.2-1.9c0.1-0.7,0.2-1.3,0.3-1.9c0.2-0.8,0.4-1.5,0.6-2.2
				c0.2-0.7,0.5-1.4,0.8-2.2c0.1-0.4,0.3-0.7,0.5-1.1c0.2-0.4,0.4-0.8,0.6-1.1c0.4-0.6,0.8-1.1,1.2-1.6c0.3-0.5,0.7-1.1,1.1-1.7
				c0.9-1.7,2.2-3.2,4-4.5c0.8-0.6,1.5-1.1,2.3-1.6s1.6-1,2.5-1.4c0.8-0.3,1.6-0.7,2.4-1c0.8-0.3,1.7-0.7,2.6-0.9
				c0.6-0.1,1.3-0.3,1.9-0.4c0.6-0.1,1.3-0.2,2-0.2c0.2,0,0.4,0,0.7-0.1c0.2,0,0.5-0.1,0.8-0.1h1.3c1.3,0,2.5,0.1,3.8,0.3
				c1.5,0.2,3.2,0.7,5,1.5c1.3,0.6,2.5,1.2,3.6,1.9c1.1,0.7,2.2,1.6,3.3,2.6c0.3,0.3,0.5,0.5,0.7,0.8c0.2,0.2,0.5,0.5,0.7,0.8
				c0.6,0.6,0.9,1.4,1.2,2.4c0.3,1.1,0.1,2.1-0.5,3.2c-0.6,1.1-1.5,1.7-2.8,2c-1.8,0.4-3.4,0-4.6-1.4c-0.4-0.4-0.9-0.8-1.3-1.2
				c-0.5-0.4-1-0.8-1.5-1.1c-0.8-0.5-1.6-0.9-2.4-1.3c-0.8-0.3-1.7-0.6-2.6-0.7c-0.9-0.2-1.8-0.3-2.7-0.4c-0.9,0-1.7,0-2.6,0.2
				c-2.7,0.4-5,1.3-7,2.9c-0.4,0.4-0.7,0.7-1.1,1c-0.4,0.3-0.7,0.6-1,1c-0.6,0.7-1.2,1.4-1.8,2.2c-0.6,0.7-1.1,1.5-1.4,2.4
				c-0.6,1.3-0.9,2.7-1.1,4.2c-0.1,0.7-0.2,1.4-0.2,2c0,0.7,0,1.3,0,2c0.1,0.8,0.1,1.5,0.2,2.3c0.1,0.7,0.2,1.5,0.5,2.3
				c0.2,0.6,0.5,1.1,0.7,1.7c0.3,0.6,0.6,1.1,1.1,1.6c0.4,0.6,0.9,1.2,1.4,1.7c0.4,0.6,0.9,1.1,1.4,1.5c0.5,0.5,1.1,0.9,1.6,1.3
				c2.2,1.5,4.5,2.5,7,2.7c0.3,0.1,0.5,0.1,0.8,0.2c0.2,0,0.5,0.1,0.9,0.1c1,0,2.1-0.2,3.4-0.5c0.6-0.2,1.3-0.4,1.9-0.6
				c0.6-0.2,1.2-0.5,1.8-0.8c1.6-0.8,2.9-1.8,4-2.9c0.2-0.1,0.4-0.3,0.6-0.5c0.2-0.2,0.4-0.3,0.6-0.5c0.1-0.1,0.3-0.1,0.4-0.2
				c0.1,0,0.3-0.1,0.4-0.2c0.8-0.2,1.5-0.3,2.3-0.3C759.8,463.4,760.5,463.7,761.2,464.3z"/>
			<path class="st1" d="M801.5,428c0.9,0.6,1.6,1.3,2,2.1c0.5,0.8,0.6,1.8,0.5,2.7c-0.3,1.4-0.9,2.5-1.8,3.2
				c-0.9,0.7-1.9,1.1-2.8,1.2c-0.4,0-0.8,0-1.3,0s-0.8,0.1-1.3,0.2c-1.9,0.4-3.4,1.4-4.4,3c-0.8,1.2-1.3,2.7-1.5,4.4
				c-0.1,0.8-0.2,1.7-0.2,2.5c0,0.8,0.1,1.6,0.1,2.5c-0.1,0.6-0.1,1.1-0.1,1.6c0,0.5,0.1,1,0.1,1.5c0,0.4,0,0.7-0.1,0.9
				c0,0.3,0,0.6,0.2,0.9c0.1,0.1,0.1,0.3,0.1,0.4c0,0.1-0.1,0.2-0.1,0.4v4.8c0,0.2,0,0.4,0.1,0.6c0,0.2,0,0.4-0.2,0.6
				c-0.1,0.1-0.1,0.2-0.1,0.3c0,0.1,0.1,0.2,0.1,0.4v2c-0.1,0.4-0.1,0.7-0.1,1.1c0,0.4,0,0.7-0.2,1.1c-0.1,0.2-0.1,0.5-0.1,0.9v4.1
				v3.4c0,1.2-0.4,2.2-1.3,3.2c-0.7,0.7-1.6,1.2-2.7,1.4c-0.4,0.1-0.7,0.1-0.9,0c-0.5-0.1-0.9-0.3-1.3-0.5c-0.4-0.2-0.7-0.5-1-0.9
				c-0.1-0.1-0.2-0.1-0.3-0.2c-0.1,0-0.2-0.1-0.3-0.2c-0.8-1-1.2-2.3-1.2-3.8c0.1-2.7,0.1-5.3,0.1-7.9c0-2.6,0-5.2,0-7.9
				c0-0.4,0-0.9,0-1.3c0-0.5-0.1-0.9-0.2-1.3c-0.1-0.1-0.1-0.2-0.1-0.3c0,0,0.1-0.1,0.1-0.3v-3.2c-0.1-0.1-0.1-0.3,0-0.5
				c0.1-0.2,0.1-0.3,0.2-0.5c-0.1-0.2-0.2-0.4-0.2-0.6s0-0.4,0-0.6c-0.1-0.7-0.1-1.4-0.1-2c0-0.7,0-1.3-0.1-2
				c-0.1-2.2-0.8-4.1-1.9-5.9c-1.1-1.4-2.6-2.3-4.4-2.7c-0.1-0.1-0.3-0.1-0.4-0.1c-0.1,0-0.2,0.1-0.4,0.1h-1.6
				c-1.3,0-2.6-0.4-3.7-1.2c0-0.1,0-0.1-0.1-0.1c0,0-0.1,0-0.1-0.1c-0.7-0.7-1.1-1.5-1.3-2.3c-0.1-0.8-0.1-1.6,0.2-2.3
				c0.2-0.7,0.7-1.4,1.4-1.9c0.7-0.6,1.5-0.9,2.4-1.1h5c0.5-0.1,0.9-0.1,1.4-0.1c0.4,0,0.8,0,1.3-0.2h0.4c1.2,0,2.4,0,3.5,0
				c1.2,0,2.3,0,3.5-0.1c0.6,0,1,0,1.3-0.1h0.8h4.7h0.2c1,0.1,1.9,0.2,2.8,0.2c0.9,0,1.8-0.1,2.7-0.1
				C800.1,427.4,800.8,427.6,801.5,428z"/>
			<path class="st1" d="M841.5,457.8c0.3,0.6,0.6,1.1,0.9,1.7c0.2,0.6,0.4,1.1,0.6,1.7c0.4,1.4,0.6,3,0.4,4.7
				c-0.1,0.6-0.2,1.1-0.3,1.6c-0.1,0.5-0.3,1.1-0.5,1.6c-0.6,1.7-1.5,3.3-2.5,4.7c-0.9,1.4-2.2,2.5-4,3.3c-1.9,0.9-3.8,1.5-5.8,1.8
				c-0.7,0.1-1.4,0.2-2,0.3c-0.7,0.1-1.3,0-2-0.1c-0.8-0.1-1.7-0.2-2.5-0.3c-0.8-0.1-1.6-0.3-2.4-0.7l-3.8-1.6
				c-1.4-0.8-2.5-1.8-3.4-3c-0.4-0.6-0.8-1.2-1.1-1.8c-0.3-0.6-0.6-1.3-1-2c-0.1-0.1-0.1-0.3-0.2-0.5c-0.1-0.2-0.1-0.4-0.1-0.6
				c0-0.1-0.1-0.2-0.2-0.5c-0.4-0.8-0.5-1.7-0.5-2.5v-0.7c-0.1-0.9,0.1-1.8,0.8-2.7c0.7-0.9,1.5-1.5,2.4-1.7
				c1.1-0.3,2.1-0.3,3.1,0.1c1,0.4,1.8,1,2.3,1.9c0.1,0.4,0.3,0.7,0.4,1.2c0.1,0.4,0.2,0.8,0.2,1.3c0,0.5,0.1,1,0.4,1.6
				c1.1,2.2,2.7,3.6,4.8,4.2c0.1,0,0.2,0,0.3,0.1c0.9,0,1.8,0,2.6,0c0.8,0,1.6-0.2,2.4-0.5c1.3-0.5,2.2-1.3,2.8-2.5
				c0.1-0.3,0.3-0.7,0.4-0.9c0.1-0.3,0.2-0.6,0.3-0.9c0.2-1.2,0-2.3-0.6-3.4c-0.7-1.1-1.5-1.8-2.5-2.3c-0.8-0.4-1.6-0.8-2.4-1.1
				c-0.8-0.3-1.6-0.6-2.4-0.8c-0.4-0.1-0.8-0.3-1.2-0.4c-0.4-0.1-0.8-0.3-1.1-0.4c-0.6-0.3-1.2-0.7-1.8-0.9
				c-0.6-0.3-1.2-0.6-1.8-0.9c-0.4-0.3-0.7-0.5-0.7-0.5c-0.8-0.6-1.7-1.1-2.5-1.7c-0.8-0.6-1.6-1.2-2.3-1.9c-0.4-0.3-0.8-0.6-1-0.9
				c-0.2-0.3-0.5-0.7-0.9-1.1c-0.3-0.3-0.5-0.6-0.7-0.9c-0.2-0.3-0.3-0.6-0.5-1c-0.9-2-1.3-4.3-1.2-6.7c0-0.8,0.1-1.5,0.3-2.2
				c0.2-0.7,0.4-1.3,0.8-2c0.3-0.7,0.7-1.4,1-2c0.3-0.6,0.7-1.3,1.1-1.9c0.8-1.3,2-2.4,3.6-3.2c1.9-0.9,4-1.6,6.3-2
				c1.6-0.2,3.4-0.2,5.4-0.1c1.1,0.1,2.3,0.4,3.6,0.8c0.6,0.2,1.1,0.4,1.5,0.6c0.5,0.2,1,0.4,1.5,0.6c1,0.4,1.9,1,2.8,1.8
				c0.5,0.4,0.9,0.9,1.3,1.5c0.6,1,1.2,2,1.7,2.9c0.5,1,0.9,2,1.3,3c0.1,0.5,0.2,1,0.3,1.4c0.1,0.5,0.1,1,0,1.5
				c-0.1,1.8-0.9,3-2.4,3.9c-0.4,0.2-0.7,0.4-0.9,0.4c-0.3,0.1-0.6,0.1-0.9,0.2c-0.1,0.1-0.3,0.1-0.5,0c-0.2-0.1-0.4-0.1-0.5-0.1
				c-1-0.1-1.8-0.6-2.6-1.5c-0.7-0.8-1.1-1.8-1.2-2.7c0-1-0.4-2-1-3c-0.4-0.6-0.9-1.1-1.4-1.6c-0.5-0.5-1.2-0.9-1.9-1.2
				c-0.4-0.1-0.7-0.2-0.9-0.3c-0.3-0.1-0.6-0.1-0.9-0.1c-1.1-0.1-2.2,0-3.4,0.2c-1.5,0.4-2.7,1.3-3.6,2.5c-0.4,0.6-0.7,1.4-0.8,2.4
				c-0.1,0.1-0.1,0.3-0.1,0.4c0,0.1,0,0.2-0.1,0.4c0.1,0.1,0.1,0.3,0.1,0.5c0.1,0.6,0.2,1.1,0.5,1.5c0.2,0.5,0.5,0.9,0.9,1.2
				c0.8,0.8,1.6,1.5,2.6,1.9c0.8,0.4,1.5,0.6,2.3,0.8c0.7,0.2,1.5,0.5,2.3,0.8c1.2,0.3,2.3,0.8,3.5,1.5c0.1,0.1,0.3,0.2,0.4,0.3
				c0.1,0,0.2,0.1,0.4,0.2c0.7,0.4,1.4,0.7,2,1.2c0.6,0.4,1.3,0.8,1.9,1.3c0.1,0.1,0.3,0.3,0.5,0.4c0.2,0.1,0.3,0.2,0.5,0.4
				c0.8,0.6,1.6,1.3,2.4,2C840.3,456.2,840.9,456.9,841.5,457.8z"/>
		</g>
	</g>
	<g>
		<circle class="st0" cx="484.6" cy="661.3" r="18.3"/>
	</g>
	<g>
		<g>
			<path class="st0" d="M364.9,894.5c0.6,0.4,1.1,0.8,1.4,1.4c0.3,0.6,0.4,1.2,0.3,1.8c-0.2,0.9-0.6,1.7-1.2,2.1
				c-0.6,0.5-1.3,0.7-1.9,0.8c-0.3,0-0.6,0-0.8,0c-0.3,0-0.6,0-0.8,0.1c-1.3,0.3-2.3,1-3,2.1c-0.5,0.8-0.8,1.8-1,3
				c-0.1,0.6-0.1,1.1-0.1,1.7c0,0.5,0,1.1,0,1.7c0,0.4-0.1,0.7,0,1.1c0,0.3,0,0.7,0,1c0,0.2,0,0.4,0,0.6c0,0.2,0,0.4,0.1,0.6
				c0,0.1,0.1,0.2,0,0.2c0,0.1,0,0.2,0,0.2v3.3c0,0.1,0,0.3,0,0.4c0,0.1,0,0.3-0.1,0.4c0,0-0.1,0.1,0,0.2c0,0.1,0,0.2,0,0.2v1.3
				c0,0.2-0.1,0.5,0,0.7c0,0.2,0,0.5-0.1,0.7c0,0.1-0.1,0.4-0.1,0.6v2.8v2.3c0,0.8-0.3,1.5-0.8,2.1c-0.5,0.5-1.1,0.8-1.8,0.9
				c-0.2,0.1-0.4,0.1-0.6,0c-0.3-0.1-0.6-0.2-0.9-0.3c-0.3-0.1-0.5-0.3-0.7-0.6c0,0-0.1-0.1-0.2-0.1c-0.1,0-0.1-0.1-0.2-0.1
				c-0.5-0.7-0.8-1.6-0.8-2.5c0-1.8,0.1-3.6,0.1-5.3c0-1.7,0-3.5,0-5.3c0-0.3,0-0.6,0-0.9s0-0.6-0.1-0.9c0-0.1-0.1-0.2,0-0.2
				c0,0,0-0.1,0-0.2v-2.1c0-0.1,0-0.2,0-0.3c0-0.1,0.1-0.2,0.1-0.3c-0.1-0.1-0.1-0.3-0.1-0.4s0-0.3,0-0.4c0-0.5-0.1-0.9,0-1.4
				c0-0.4,0-0.9,0-1.4c-0.1-1.5-0.5-2.8-1.3-4c-0.8-0.9-1.7-1.6-3-1.8c-0.1,0-0.2-0.1-0.2,0c-0.1,0-0.2,0-0.2,0h-1.1
				c-0.9,0-1.7-0.3-2.5-0.8c0,0,0-0.1,0-0.1s0,0,0-0.1c-0.5-0.5-0.8-1-0.8-1.5c-0.1-0.5-0.1-1.1,0.1-1.6c0.2-0.5,0.5-0.9,0.9-1.3
				c0.4-0.4,1-0.6,1.6-0.7h3.4c0.3,0,0.6-0.1,0.9,0c0.3,0,0.6,0,0.8-0.1h0.3c0.8,0,1.6,0,2.4,0c0.8,0,1.6,0,2.4-0.1
				c0.4,0,0.7,0,0.8-0.1h0.6h3.2h0.1c0.7,0.1,1.3,0.1,1.9,0.1c0.6,0,1.2,0,1.8,0C364,894.2,364.5,894.3,364.9,894.5z"/>
			<path class="st0" d="M399.1,923c0.5,0.3,0.9,0.8,1.2,1.5c0.3,0.7,0.3,1.4,0.1,2c-0.1,0.3-0.2,0.6-0.4,0.9
				c-0.2,0.3-0.4,0.5-0.6,0.8c-0.6,0.5-1.2,0.7-1.8,0.7h-4.9h-6.5c-0.3,0-0.6,0-0.9,0c-0.3,0-0.6,0-0.9,0c-0.2,0-0.5,0.1-0.6,0.1
				c-0.2,0-0.4,0-0.6,0c-0.5,0-1-0.1-1.5-0.2c-0.5-0.1-0.9-0.3-1.3-0.6c-0.6-0.3-1-0.7-1.4-1.1c-0.7-0.7-1-1.4-0.9-2.3
				c0-0.4,0-0.8,0-1.2c0-0.4,0-0.8,0.1-1.2c0-0.4,0.1-0.7,0.1-1.1s0-0.7,0-1.1v-0.4c-0.1-0.5-0.1-0.9-0.1-1.4c0-0.5,0-1,0-1.5v-3.7
				c0-1.5,0-2.9,0-4.4c0-1.4,0-2.9,0.1-4.4c0-0.3,0-0.6,0.1-0.7v-0.6v-5.4c0-0.7,0.2-1.4,0.5-2c0.3-0.5,0.6-0.8,1.1-1.1
				c0.8-0.5,1.6-0.7,2.6-0.7c0.8,0,1.5-0.1,2.2,0c0.7,0,1.4,0,2.2,0h1.3h6h3.1c0.5,0,1,0.1,1.5,0.4c0.7,0.4,1.1,1,1.3,1.8
				c0.2,0.7,0.2,1.4,0,2.1c-0.3,0.9-1,1.6-2,1.8c-0.4,0.1-0.7,0.2-1.1,0.2h-2.4c-0.1,0-0.3,0-0.4,0.1c-0.5,0.1-0.9,0.1-1.3,0
				c-0.2,0-0.4-0.1-0.8-0.1h-2.4c-0.9,0-1.9,0.3-2.8,0.9c-0.3,0.2-0.5,0.4-0.6,0.5c-1,0.8-1.3,1.8-1.1,3.1c0,0.1,0.1,0.2,0.1,0.4
				s0.1,0.3,0.2,0.4c0.3,0.7,0.9,1.2,1.8,1.6c0.8,0.3,1.7,0.5,2.8,0.5h1.1c1,0,2.1,0.1,3.3,0.4c0.8,0.1,1.5,0.4,2,0.9
				c0.1,0.1,0.2,0.2,0.2,0.3c0.1,0.1,0.1,0.2,0.2,0.4c0.2,0.8,0.2,1.5-0.1,2.1c-0.4,0.9-1.1,1.6-2.2,1.8c-0.1,0.1-0.3,0.1-0.5,0.1
				c-0.2,0-0.3,0-0.5,0h-1.3c-0.2,0-0.4,0-0.5,0c-0.2,0-0.3,0-0.5,0.1c-0.1,0-0.2,0.1-0.2,0c-0.1,0-0.2,0-0.2,0h-1.7
				c-1.2,0.1-2.2,0.5-3,1.3c-0.2,0.2-0.4,0.4-0.5,0.5s-0.3,0.3-0.4,0.6c-0.2,0.4-0.4,0.7-0.4,1c-0.1,0.8-0.1,1.6,0.1,2.5
				c0.3,0.8,0.8,1.4,1.6,1.8c0.7,0.4,1.5,0.6,2.4,0.8c0.5,0.1,1,0.1,1.5,0.1c0.5,0,1,0,1.5,0c0.5-0.1,0.9-0.1,1.4-0.1
				c0.4,0,0.9,0,1.5,0c0.3,0,0.5,0,0.6,0.1c0.1,0,0.3,0.1,0.5,0.1h1.8c0.2,0,0.4,0,0.5,0.1s0.3,0.1,0.4,0.1c0.1,0,0.2,0.1,0.2,0.1
				C399,922.9,399,922.9,399.1,923z"/>
			<path class="st0" d="M440.1,919c0.7,0.5,1.1,1.2,1.2,2.1v0.6c0,0.8-0.3,1.5-0.9,2.2c-0.2,0.2-0.5,0.4-0.7,0.6
				c-0.3,0.2-0.5,0.4-0.8,0.6c-0.3,0.2-0.6,0.4-0.9,0.6c-0.3,0.2-0.6,0.4-0.8,0.6c-0.5,0.4-1,0.7-1.6,0.9c-0.5,0.2-1.1,0.5-1.6,0.7
				c-0.3,0.1-0.6,0.3-1,0.4c-0.3,0.1-0.6,0.2-1,0.3c-0.3,0-0.6,0.1-0.8,0.1c-0.3,0-0.5,0.1-0.8,0.1c-0.4,0-0.7-0.1-1-0.1
				c-0.3,0-0.6,0-1,0c0,0,0,0.1,0.1,0.1h-2c-0.6,0-1.1-0.1-1.6-0.2s-1-0.3-1.5-0.6c-0.5-0.2-0.9-0.4-1.4-0.6
				c-0.4-0.2-0.9-0.4-1.3-0.6c-1.2-0.6-2.2-1.3-3-2.3c-0.1-0.2-0.3-0.4-0.5-0.5c-0.2-0.1-0.3-0.3-0.5-0.5c-0.2-0.2-0.4-0.4-0.5-0.5
				c-0.1-0.2-0.3-0.3-0.6-0.5c-0.7-0.6-1.3-1.4-1.8-2.4c-0.4-0.8-0.7-1.5-1-2.3c-0.3-0.8-0.5-1.5-0.6-2.3c-0.1-0.3-0.2-0.7-0.2-1
				c0-0.3-0.1-0.7-0.2-1c-0.3-1-0.4-2.1-0.3-3.3c0-0.4,0.1-0.9,0.1-1.3c0-0.4,0.1-0.9,0.2-1.3c0.1-0.5,0.3-1,0.4-1.5
				c0.1-0.5,0.3-1,0.6-1.5c0.1-0.2,0.2-0.5,0.4-0.7c0.1-0.3,0.3-0.5,0.4-0.7c0.3-0.4,0.5-0.7,0.8-1.1c0.2-0.4,0.5-0.7,0.7-1.2
				c0.6-1.1,1.5-2.1,2.7-3c0.5-0.4,1-0.7,1.5-1.1c0.5-0.4,1-0.7,1.7-1c0.5-0.2,1.1-0.5,1.6-0.7c0.6-0.2,1.2-0.4,1.8-0.6
				c0.4-0.1,0.8-0.2,1.3-0.3c0.4-0.1,0.9-0.1,1.3-0.1c0.1,0,0.3,0,0.5,0c0.2,0,0.3,0,0.5,0h0.8c0.8,0,1.7,0.1,2.5,0.2
				c1,0.1,2.2,0.5,3.4,1c0.8,0.4,1.7,0.8,2.4,1.3c0.8,0.5,1.5,1.1,2.2,1.7c0.2,0.2,0.4,0.4,0.5,0.5c0.1,0.2,0.3,0.3,0.5,0.5
				c0.4,0.4,0.6,0.9,0.8,1.6c0.2,0.7,0.1,1.4-0.3,2.1c-0.4,0.7-1,1.2-1.9,1.3c-1.2,0.3-2.3,0-3.1-0.9c-0.3-0.3-0.6-0.6-0.9-0.8
				c-0.3-0.3-0.6-0.5-1-0.7c-0.5-0.3-1.1-0.6-1.6-0.8c-0.6-0.2-1.2-0.4-1.8-0.5c-0.6-0.1-1.2-0.2-1.8-0.2c-0.6,0-1.2,0-1.7,0.1
				c-1.8,0.2-3.4,0.9-4.7,2c-0.2,0.2-0.5,0.5-0.7,0.7c-0.2,0.2-0.5,0.4-0.7,0.7c-0.4,0.5-0.8,1-1.2,1.5c-0.4,0.5-0.7,1-1,1.6
				c-0.4,0.8-0.6,1.8-0.7,2.8c-0.1,0.5-0.1,0.9-0.1,1.4c0,0.4,0,0.9,0,1.4c0,0.5,0.1,1,0.1,1.5c0,0.5,0.2,1,0.4,1.5
				c0.1,0.4,0.3,0.8,0.5,1.1c0.2,0.4,0.4,0.7,0.7,1.1c0.3,0.4,0.6,0.8,0.9,1.1c0.3,0.4,0.6,0.7,1,1c0.4,0.3,0.7,0.6,1.1,0.9
				c1.5,1,3,1.7,4.7,1.8c0.2,0,0.4,0.1,0.5,0.1c0.2,0,0.4,0,0.6,0c0.7,0,1.4-0.1,2.3-0.4c0.4-0.1,0.8-0.3,1.3-0.4
				c0.4-0.1,0.8-0.3,1.2-0.6c1.1-0.5,2-1.2,2.7-2c0.1-0.1,0.3-0.2,0.4-0.3c0.1-0.1,0.2-0.2,0.4-0.3c0.1,0,0.2-0.1,0.3-0.1
				c0.1,0,0.2-0.1,0.3-0.1c0.5-0.1,1-0.2,1.5-0.2C439.2,918.4,439.7,918.6,440.1,919z"/>
			<path class="st0" d="M478.3,907.3c0.1,0.4,0.1,0.7-0.1,1.1c0.1,0.4,0.2,0.8,0.1,1.3c0,0.2-0.1,0.6-0.1,1.1c0,0.8-0.1,1.7-0.1,2.6
				c0,0.9,0,1.8,0,2.7v0.3c-0.1,0.6-0.1,1.1-0.1,1.7c0,0.6,0,1.2,0,1.8v3.3c0,0.2,0,0.5,0,0.7c0,0.2,0,0.4,0.1,0.7
				c0,0.3,0,0.6,0,0.9c0,0.3,0,0.6-0.1,0.8c0,0.1-0.1,0.3-0.1,0.6c-0.2,0.6-0.5,1.1-1,1.5s-0.9,0.6-1.5,0.7c-0.5,0.1-1.1,0-1.7-0.1
				c-0.6-0.2-1-0.5-1.3-1c-0.1-0.2-0.2-0.4-0.3-0.6c-0.1-0.2-0.2-0.4-0.2-0.6c0-0.3,0-0.6,0-0.8c0-0.3,0-0.6-0.1-0.8
				c-0.1-0.8-0.1-1.6-0.1-2.4c0-0.8,0-1.6,0-2.4c0-0.2-0.1-0.5-0.1-0.7c0-0.2-0.1-0.4-0.2-0.7c0,0,0-0.1,0-0.1s0-0.1,0-0.1
				c-0.1-0.6-0.4-1.1-0.7-1.5c-0.3-0.4-0.7-0.9-1.1-1.2c-0.1-0.1-0.2-0.2-0.4-0.2c-0.1-0.1-0.3-0.2-0.4-0.2
				c-0.5-0.3-1.1-0.5-1.8-0.6c-0.6-0.1-1.2-0.1-1.8,0.1c-0.6,0.1-1.1,0.4-1.6,0.6c-1.1,0.5-1.9,1.3-2.5,2.3l-0.4,0.6
				c-0.3,0.4-0.5,0.9-0.6,1.4c-0.2,0.8-0.3,1.6-0.3,2.4c0,0.7,0,1.3,0,1.9s0,1.3,0.1,1.9c0,0.8-0.2,1.4-0.5,2.1
				c-0.5,0.8-1.1,1.2-1.8,1.3c-0.8,0.2-1.5,0.1-2.2-0.4c-0.7-0.4-1.1-0.9-1.3-1.5c-0.1-0.2-0.2-0.5-0.2-0.7c0-0.2,0-0.5,0-0.7
				c0-0.2,0-0.4,0-0.6c0-0.2,0-0.4-0.1-0.6c0-0.1-0.1-0.2,0-0.2c0,0,0-0.1,0-0.2v-1.1c0-0.6,0-1.1,0-1.7c0-0.6,0.1-1.1,0.2-1.7
				c0.1-0.6,0.1-1.2,0-1.8c-0.1-0.2-0.1-0.4-0.1-0.6c0-0.2,0-0.4,0-0.6c0-0.1,0-0.3,0-0.4c0-0.1,0-0.3-0.1-0.4v-0.4v-5.4
				c0-0.2,0-0.3,0.1-0.4v-0.6v-1.7c0-0.1,0-0.2,0-0.2c0,0,0-0.1,0-0.2c0-0.1-0.1-0.4-0.1-0.7v-2.2c0-0.2,0-0.5,0-0.7
				c0-0.2,0-0.4,0-0.7c0-1,0-2.1,0-3v-0.8c0-0.1,0-0.2,0-0.2c0-0.1,0-0.2,0-0.2c-0.1-0.3-0.1-0.5-0.1-0.7c0.1-0.2,0.1-0.4,0.1-0.5
				c0-0.2,0-0.3,0.1-0.5c0.1-0.4,0.4-0.8,0.8-1.3c0.4-0.4,0.9-0.7,1.4-0.8c0.3-0.1,0.6-0.2,0.9-0.1c0.3,0,0.5,0.1,0.8,0.2
				c0.5,0.1,0.9,0.5,1.3,1c0.5,0.6,0.7,1.3,0.7,1.9c-0.1,0.3-0.1,0.6,0.1,0.8v0.4c0,0.7,0,1.3,0,1.9c0,0.6,0,1.3,0,1.9
				c0,0.6,0,1.2,0.1,1.8c0.1,0.6,0.2,1.1,0.4,1.6c0.1,0.5,0.4,0.9,0.9,1.3c0.1,0.1,0.2,0.2,0.4,0.2c0.1,0.1,0.3,0.2,0.4,0.2
				c0.6,0.3,1.3,0.6,2.1,0.8c1.6,0.3,3.1,0.3,4.5-0.2c0.7-0.2,1.3-0.7,1.8-1.4c0.4-0.5,0.7-1.1,0.8-1.9c0-0.3,0.1-0.6,0.2-0.9
				c0.2-0.6,0.3-1.2,0.3-2c0-0.5,0-1,0-1.6c0-0.5,0-1.1,0-1.6v-0.2c-0.1-0.3-0.1-0.5-0.1-0.8c0-0.2,0.1-0.5,0.1-0.7
				c0.1-0.5,0.2-0.8,0.4-1.1c0.6-0.9,1.3-1.5,2.3-1.6c0.6,0,1.2,0.1,1.8,0.4c0.7,0.4,1.2,1,1.5,1.9v0.1c0,0,0,0.1,0.1,0.1
				c0,0,0,0.1,0,0.1c0,0,0,0.1,0,0.1v1.1c0,0.2,0,0.4,0,0.6c0,0.2,0,0.4-0.1,0.6c-0.1,0.2-0.1,0.5-0.1,0.7c0,0.2,0,0.4,0,0.7
				c0,0.4,0,0.8,0,1.1c0,0.4,0,0.8,0.1,1.1c0.1,0.6,0.1,1.1,0.1,1.7s0,1.1,0,1.7c0,0.2,0.1,0.4,0.1,0.5S478.2,907.1,478.3,907.3z"/>
			<path class="st0" d="M514.9,897.4c0,0.5,0,0.9,0,1.3c0,0.4,0,0.9,0,1.3v5.3c0,0.2,0,0.5,0,0.7c0,0.3,0,0.5-0.1,0.7
				c0,0.1-0.1,0.2,0,0.2c0,0.1,0,0.2,0,0.2v4.3c0,0.1,0,0.3,0,0.4c0,0.1,0,0.3,0.1,0.4c0,0.1,0.1,0.2,0,0.2c0,0.1,0,0.2,0,0.2v9.4
				c0,0.2,0,0.4,0,0.5c0,0.2,0,0.4,0,0.6c0,0.2,0.1,0.4,0.1,0.6s0,0.4,0,0.6v1.1c0,0.5,0,0.8-0.1,1.1c-0.1,0.1-0.2,0.3-0.2,0.5
				c-0.1,0.2-0.2,0.3-0.2,0.4c0,0.1-0.1,0.2-0.1,0.2c0,0-0.1,0.1-0.1,0.2c-0.2,0.2-0.5,0.4-0.8,0.6c-0.3,0.1-0.6,0.3-0.9,0.4
				c-0.6,0.1-1.1,0-1.6-0.3c-0.3-0.2-0.6-0.5-0.8-0.8c-0.1-0.2-0.3-0.4-0.4-0.6c-0.1-0.2-0.2-0.4-0.4-0.6c-0.2-0.4-0.5-0.7-0.7-1
				c-0.2-0.3-0.5-0.6-0.7-1c-0.5-0.7-1-1.5-1.5-2.5c-0.4-0.9-1-1.8-1.6-2.7l-0.4-0.4l-1.3-1.7c-0.1-0.2-0.2-0.4-0.4-0.6
				c-0.2-0.2-0.3-0.3-0.5-0.5c-0.7-0.6-1.4-0.8-2.2-0.8c-1,0.1-1.7,0.5-2.1,1.3c-0.1,0.2-0.3,0.5-0.4,0.7c-0.1,0.3-0.1,0.5-0.1,0.8
				c0,0.4,0,0.7-0.1,0.9c0,0.1-0.1,0.2-0.1,0.4v5.5c0,0.2,0,0.5-0.1,0.7c0,0.2-0.1,0.5-0.1,0.7c-0.4,1.1-1.1,1.9-2.1,2.2
				c-1.1,0.3-2.1,0-3-0.7c-0.3-0.3-0.6-0.7-0.7-1.1c-0.1-0.3-0.2-0.7-0.2-1.2c0-1.4,0-2.8,0-4.2c0-1.4,0-2.8,0-4.2
				c0-0.6,0-1.1,0-1.7c0-0.6,0-1.2,0-1.8v-0.4c0.1-0.2,0.1-0.4,0.1-0.5c0-0.2,0-0.3,0-0.5c0.1-0.4,0.1-0.8,0-1.2c0-0.2,0-0.5,0-0.7
				c0-0.2,0-0.4-0.1-0.7c0-0.1-0.1-0.2,0-0.2c0,0,0-0.1,0-0.2v-0.9c0-1.7,0-3.4,0-5.1c0-1.7,0-3.4,0-5.1c0-0.2,0-0.4,0-0.5
				c0-0.1,0-0.3,0-0.5c0.1-0.8,0.4-1.5,0.9-2.1c0.1-0.1,0.3-0.3,0.5-0.4c0.2-0.1,0.4-0.2,0.6-0.3c0.1,0,0.3,0,0.5-0.1h0.7
				c0.9,0.2,1.6,0.7,2.1,1.6c0.5,0.7,0.9,1.4,1.4,2.1c0.4,0.7,0.9,1.4,1.4,2.2c0.5,0.8,1,1.6,1.5,2.3c0.4,0.7,0.9,1.5,1.5,2.3
				c0.9,1.3,2,2.1,3.4,2.5c0.1,0.1,0.3,0.1,0.5,0.1c0.2,0,0.3,0,0.4,0.1c0.2,0,0.4-0.1,0.6-0.2c0.2-0.1,0.3-0.2,0.5-0.2
				c0.3-0.3,0.6-0.7,0.8-1.3c0.2-0.6,0.4-1,0.4-1.4c0-0.2,0-0.3,0.1-0.4c0-0.2,0.1-0.6,0.1-1.1v-3c0-0.2,0-0.5,0-0.7
				c0-0.3,0.1-0.5,0.1-0.8v-0.7c0-0.5,0.1-0.9,0.2-1.3c0.1-0.4,0.4-0.8,0.7-1.2c0.4-0.4,0.8-0.6,1.4-0.8h0.8c0.7,0,1.2,0.2,1.7,0.6
				c0.5,0.4,0.8,0.9,1.1,1.6C514.8,896.8,514.9,897,514.9,897.4z"/>
			<path class="st0" d="M560.6,907.7c0.1,0.3,0.2,0.6,0.2,0.8c0,0.3,0.1,0.6,0.1,0.8c0,0.7,0,1.4,0,2.1c0,0.7-0.1,1.4-0.1,2.1
				c0,0.2,0,0.5,0,0.7c0,0.2,0,0.5-0.1,0.7c-0.1,0.4-0.2,0.7-0.2,1c-0.1,0.3-0.2,0.6-0.2,1c0,0.2-0.2,0.6-0.4,1.1l-0.6,1.3
				c-0.1,0.1-0.2,0.2-0.2,0.2c0,0-0.1,0.1-0.2,0.2c0,0,0,0.1,0,0.1s0,0.1,0,0.2c-0.3,0.5-0.7,1-1,1.6c-0.4,0.5-0.7,1.1-1.2,1.6
				c-0.3,0.3-0.6,0.6-0.9,0.9c-0.3,0.3-0.6,0.6-0.9,0.8c-0.2,0.1-0.4,0.3-0.5,0.5c-0.2,0.2-0.3,0.3-0.5,0.4
				c-0.2,0.1-0.4,0.2-0.6,0.3c-0.2,0.1-0.4,0.2-0.6,0.3c-0.4,0.2-0.8,0.4-1.2,0.6c-0.4,0.2-0.9,0.3-1.3,0.5c-0.5,0.2-1,0.4-1.6,0.5
				c-0.5,0.1-1.1,0.2-1.6,0.4c-0.5,0.1-0.9,0.2-1.4,0.2c-0.5,0-1,0.1-1.5,0.1c-0.6,0-1.2-0.1-1.8-0.2c-0.4,0-0.7-0.1-1.1-0.2
				c-0.3-0.1-0.7-0.2-1.1-0.3c-0.9-0.2-1.9-0.5-3-1.1c-0.3-0.1-0.6-0.3-0.8-0.4c-0.3-0.1-0.5-0.3-0.8-0.5c-0.3-0.2-0.6-0.5-0.9-0.7
				c-0.3-0.2-0.5-0.5-0.8-0.8c-0.1-0.2-0.2-0.4-0.4-0.5c-0.2-0.1-0.3-0.3-0.5-0.4c-0.3-0.3-0.6-0.6-0.9-0.9s-0.6-0.6-0.9-1
				c-0.5-0.6-0.8-1.1-1.1-1.6c-0.3-0.5-0.5-1-0.8-1.6c-0.2-0.5-0.4-1.1-0.6-1.7c-0.1-0.4-0.2-0.8-0.2-1.2c-0.1-0.4-0.2-0.8-0.2-1.2
				c-0.1-0.4-0.2-0.8-0.2-1.2c0-0.4,0-0.8,0-1.2c0-0.2,0-0.4,0-0.6s0-0.4-0.1-0.6c-0.1-0.2-0.1-0.5,0-0.8c0.1-0.2,0.1-0.4,0.1-0.6
				c0-0.2,0-0.3,0-0.5c0-0.4,0.1-0.7,0.1-1.1s0.1-0.7,0.2-1.1c0.4-1.4,0.9-2.7,1.6-3.8c0.6-0.9,1.1-1.8,1.7-2.5c0.9-1.1,2-2.1,3.2-3
				c1.6-1.1,3.3-2,5.1-2.5c1.2-0.4,2.4-0.6,3.6-0.6c0.2,0,0.4,0,0.6-0.1c0.2-0.1,0.5-0.1,0.7,0c0.1,0,0.2,0.1,0.3,0.1
				c0.8,0,1.5,0,2.2,0.1c0.7,0.1,1.4,0.3,2.1,0.5l1.3,0.4c1.7,0.7,3.2,1.5,4.4,2.6c0.1,0.1,0.3,0.2,0.4,0.4s0.3,0.3,0.4,0.4
				c0.6,0.7,1.2,1.4,1.7,2.1c0.3,0.5,0.6,0.9,0.8,1.3c0.3,0.4,0.6,0.8,0.8,1.3c0.4,0.6,0.7,1.2,0.9,1.9c0.1,0.4,0.2,0.7,0.3,1.1
				C560.4,907,560.5,907.3,560.6,907.7z M553.8,916.4c0.4-0.7,0.6-1.3,0.7-2.1c0.1-0.7,0.2-1.4,0.2-2.1c0-0.3,0-0.6,0-1
				c0-0.3,0-0.6-0.1-0.9c0-0.4-0.1-0.8-0.2-1.3c-0.1-0.4-0.2-0.8-0.3-1.3c-0.2-0.4-0.4-0.8-0.6-1.2c-0.2-0.4-0.4-0.8-0.6-1.2
				c-0.6-0.9-1.4-1.7-2.4-2.5c-1.8-1.4-3.8-2.1-5.9-2.1h-1.3c-1,0-2.1,0.2-3,0.6c-0.2,0.1-0.5,0.2-0.7,0.4c-0.3,0.1-0.5,0.3-0.7,0.4
				c-0.7,0.5-1.4,1.1-2.1,1.8c-0.4,0.5-0.8,1-1.1,1.5c-0.3,0.5-0.7,1.1-1.1,1.6c-0.5,0.7-0.8,1.5-0.8,2.5v3c0,0.4,0,0.8,0.1,1.2
				c0.1,0.4,0.2,0.8,0.2,1.1c0.4,1.6,1.2,2.9,2.3,4.2c0.6,0.8,1.3,1.3,2,1.8c0.1,0.1,0.3,0.2,0.4,0.2c0.1,0.1,0.2,0.2,0.3,0.2
				c0.4,0.1,0.7,0.2,1.1,0.4c0.4,0.1,0.7,0.3,1.1,0.4c0.1,0,0.3,0.1,0.6,0.1c0.4,0.1,0.7,0.2,1.1,0.2c0.3,0,0.7,0,1.1,0h0.6
				c0.3,0,0.6,0,0.8,0c0.3,0,0.6-0.1,0.8-0.1c2-0.4,3.8-1.4,5.4-2.9c0.4-0.3,0.7-0.6,0.9-1C553,917.9,553.4,917.2,553.8,916.4z"/>
			<path class="st0" d="M589.5,922.5c0.7,0,1.3,0.2,1.9,0.6c0.5,0.5,0.9,1,1.2,1.7c0.3,0.9,0.2,1.8-0.4,2.7c0,0.1-0.1,0.2-0.1,0.2
				c0,0-0.1,0.1-0.1,0.2c-0.1,0.1-0.2,0.2-0.2,0.2c-0.1,0-0.2,0.1-0.2,0.1c-0.6,0.4-1.2,0.6-1.8,0.6c-0.3,0-0.6,0-0.8,0
				c-0.3,0-0.5,0-0.7,0.1c-0.5,0-1,0-1.6,0c-0.5,0-1.1,0-1.6-0.1c-0.2,0-0.4-0.1-0.6-0.1s-0.4,0-0.6,0H580c-0.2,0-0.3,0-0.4,0.1
				c-0.5,0.1-1,0.1-1.4,0c-0.1,0-0.2-0.1-0.4-0.1c-0.6,0-1.2-0.2-1.8-0.5c-0.9-0.4-1.6-1.1-1.9-2.1c-0.2-0.4-0.3-0.9-0.3-1.4
				c0-0.3,0-0.6,0-1c0-0.3,0-0.6,0.1-0.9c0-0.3,0.1-0.6,0-0.9c0-0.3,0-0.6,0.1-1c0.1-0.4,0.1-0.8-0.1-1.1c0-0.1-0.1-0.2-0.1-0.4v-6
				c0-0.3,0-0.6,0-0.8s0-0.5-0.1-0.8v-0.2v-5c0-0.2,0-0.3,0.1-0.4c0-0.2,0.1-0.4,0.1-0.7v-5c0-0.1,0-0.3,0-0.4c0-0.1,0-0.2,0-0.3
				c0-0.5-0.1-1-0.1-1.5c0-0.5,0-1,0-1.5c0.1-0.7,0.4-1.2,0.8-1.7s1-0.7,1.7-0.8c0.2-0.1,0.5-0.2,0.7-0.1c0.3,0,0.5,0.1,0.8,0.2
				c0,0,0.1,0,0.1,0c0,0,0.1,0,0.2,0c0.8,0.5,1.4,1.2,1.6,2c0,0.1,0.1,0.4,0.1,0.6v2.3c0,0.5,0,1,0,1.6c0,0.5,0,1.1,0.1,1.6
				c0,0.7,0,1.3,0,1.9c0,0.6,0,1.2,0,1.9c0,0.2,0,0.5,0,0.7c0,0.2,0,0.4,0.1,0.7c0,0.4,0,0.7,0,1.1c-0.1,0.3-0.1,0.6-0.1,0.9
				c0,0.3,0,0.6,0,0.9c0,0.3-0.1,0.6-0.1,0.8c0,0.3,0,0.5,0,0.8v1.7c0,0.3,0,0.5,0.1,0.7c0,0.2,0.1,0.5,0.1,0.9
				c-0.1,0.8,0,1.4,0.3,2.1c0,0.2,0.1,0.4,0.1,0.6c0,0.2,0.1,0.4,0.2,0.6c0.1,0.4,0.3,0.8,0.6,1.2c0,0.1,0.1,0.2,0.1,0.2
				c0,0,0.1,0.1,0.1,0.2c0.2,0.5,0.6,0.9,1.3,1.3c0.2,0.1,0.5,0.3,0.8,0.4c0.3,0.1,0.6,0.2,0.9,0.3c0.1,0,0.2,0.1,0.3,0
				c0.1,0,0.2,0,0.3,0c0.8,0,1.6,0,2.3,0C587.9,922.6,588.7,922.6,589.5,922.5z"/>
			<path class="st0" d="M633.6,907.7c0.1,0.3,0.2,0.6,0.2,0.8c0,0.3,0.1,0.6,0.1,0.8c0,0.7,0,1.4,0,2.1c0,0.7-0.1,1.4-0.1,2.1
				c0,0.2,0,0.5,0,0.7c0,0.2,0,0.5-0.1,0.7c-0.1,0.4-0.2,0.7-0.2,1c-0.1,0.3-0.2,0.6-0.2,1c0,0.2-0.2,0.6-0.4,1.1l-0.6,1.3
				c-0.1,0.1-0.2,0.2-0.2,0.2c0,0-0.1,0.1-0.2,0.2c0,0,0,0.1,0,0.1s0,0.1,0,0.2c-0.3,0.5-0.7,1-1,1.6c-0.4,0.5-0.7,1.1-1.2,1.6
				c-0.3,0.3-0.6,0.6-0.9,0.9c-0.3,0.3-0.6,0.6-0.9,0.8c-0.2,0.1-0.4,0.3-0.5,0.5c-0.2,0.2-0.3,0.3-0.5,0.4
				c-0.2,0.1-0.4,0.2-0.6,0.3c-0.2,0.1-0.4,0.2-0.6,0.3c-0.4,0.2-0.8,0.4-1.2,0.6c-0.4,0.2-0.9,0.3-1.3,0.5c-0.5,0.2-1,0.4-1.6,0.5
				c-0.5,0.1-1.1,0.2-1.6,0.4c-0.5,0.1-0.9,0.2-1.4,0.2c-0.5,0-1,0.1-1.5,0.1c-0.6,0-1.2-0.1-1.8-0.2c-0.4,0-0.7-0.1-1.1-0.2
				c-0.3-0.1-0.7-0.2-1.1-0.3c-0.9-0.2-1.9-0.5-3-1.1c-0.3-0.1-0.6-0.3-0.8-0.4c-0.3-0.1-0.5-0.3-0.8-0.5c-0.3-0.2-0.6-0.5-0.9-0.7
				c-0.3-0.2-0.5-0.5-0.8-0.8c-0.1-0.2-0.2-0.4-0.4-0.5c-0.2-0.1-0.3-0.3-0.5-0.4c-0.3-0.3-0.6-0.6-0.9-0.9s-0.6-0.6-0.9-1
				c-0.5-0.6-0.8-1.1-1.1-1.6c-0.3-0.5-0.5-1-0.8-1.6c-0.2-0.5-0.4-1.1-0.6-1.7c-0.1-0.4-0.2-0.8-0.2-1.2c-0.1-0.4-0.2-0.8-0.2-1.2
				c-0.1-0.4-0.2-0.8-0.2-1.2c0-0.4,0-0.8,0-1.2c0-0.2,0-0.4,0-0.6s0-0.4-0.1-0.6c-0.1-0.2-0.1-0.5,0-0.8c0.1-0.2,0.1-0.4,0.1-0.6
				c0-0.2,0-0.3,0-0.5c0-0.4,0.1-0.7,0.1-1.1s0.1-0.7,0.2-1.1c0.4-1.4,0.9-2.7,1.6-3.8c0.6-0.9,1.1-1.8,1.7-2.5c0.9-1.1,2-2.1,3.2-3
				c1.6-1.1,3.3-2,5.1-2.5c1.2-0.4,2.4-0.6,3.6-0.6c0.2,0,0.4,0,0.6-0.1c0.2-0.1,0.5-0.1,0.7,0c0.1,0,0.2,0.1,0.3,0.1
				c0.8,0,1.5,0,2.2,0.1c0.7,0.1,1.4,0.3,2.1,0.5l1.3,0.4c1.7,0.7,3.2,1.5,4.4,2.6c0.1,0.1,0.3,0.2,0.4,0.4s0.3,0.3,0.4,0.4
				c0.6,0.7,1.2,1.4,1.7,2.1c0.3,0.5,0.6,0.9,0.8,1.3c0.3,0.4,0.6,0.8,0.8,1.3c0.4,0.6,0.7,1.2,0.9,1.9c0.1,0.4,0.2,0.7,0.3,1.1
				C633.4,907,633.5,907.3,633.6,907.7z M626.9,916.4c0.4-0.7,0.6-1.3,0.7-2.1c0.1-0.7,0.2-1.4,0.2-2.1c0-0.3,0-0.6,0-1
				c0-0.3,0-0.6-0.1-0.9c0-0.4-0.1-0.8-0.2-1.3c-0.1-0.4-0.2-0.8-0.3-1.3c-0.2-0.4-0.4-0.8-0.6-1.2c-0.2-0.4-0.4-0.8-0.6-1.2
				c-0.6-0.9-1.4-1.7-2.4-2.5c-1.8-1.4-3.8-2.1-5.9-2.1h-1.3c-1,0-2.1,0.2-3,0.6c-0.2,0.1-0.5,0.2-0.7,0.4c-0.3,0.1-0.5,0.3-0.7,0.4
				c-0.7,0.5-1.4,1.1-2.1,1.8c-0.4,0.5-0.8,1-1.1,1.5c-0.3,0.5-0.7,1.1-1.1,1.6c-0.5,0.7-0.8,1.5-0.8,2.5v3c0,0.4,0,0.8,0.1,1.2
				c0.1,0.4,0.2,0.8,0.2,1.1c0.4,1.6,1.2,2.9,2.3,4.2c0.6,0.8,1.3,1.3,2,1.8c0.1,0.1,0.3,0.2,0.4,0.2c0.1,0.1,0.2,0.2,0.3,0.2
				c0.4,0.1,0.7,0.2,1.1,0.4c0.4,0.1,0.7,0.3,1.1,0.4c0.1,0,0.3,0.1,0.6,0.1c0.4,0.1,0.7,0.2,1.1,0.2c0.3,0,0.7,0,1.1,0h0.6
				c0.3,0,0.6,0,0.8,0c0.3,0,0.6-0.1,0.8-0.1c2-0.4,3.8-1.4,5.4-2.9c0.4-0.3,0.7-0.6,0.9-1C626,917.9,626.4,917.2,626.9,916.4z"/>
			<path class="st0" d="M675.8,915.3c0,0.4,0,0.9,0.1,1.3c0,0.4,0.1,0.9,0.1,1.3c0,0.8-0.1,1.6-0.4,2.5c-0.3,1.2-0.8,2.4-1.5,3.5
				c-0.1,0.2-0.3,0.4-0.5,0.6c-0.2,0.2-0.3,0.4-0.5,0.6c-0.1,0.2-0.3,0.4-0.5,0.6c-0.2,0.2-0.4,0.4-0.6,0.6
				c-0.1,0.1-0.2,0.2-0.3,0.2c-0.1,0-0.2,0.1-0.3,0.2c-0.6,0.2-1.1,0.5-1.7,0.7c-0.6,0.2-1.2,0.5-1.8,0.7c-0.4,0.2-0.8,0.3-1.2,0.4
				c-0.4,0.1-0.8,0.2-1.3,0.3c-0.5,0.1-0.9,0.2-1.4,0.2c-0.4,0-0.9,0-1.5,0c-0.2,0-0.4,0-0.6,0c-0.2,0-0.4-0.1-0.6-0.1
				c-0.5-0.1-1.1-0.2-1.6-0.3c-0.6-0.1-1.1-0.2-1.6-0.3c-1-0.2-2.1-0.6-3.2-1.3c-0.4-0.2-0.7-0.5-1.1-0.7c-0.4-0.3-0.7-0.5-1.1-0.8
				c-0.6-0.5-1.2-1-1.7-1.5c-0.5-0.5-0.9-1.1-1.3-1.8c-0.2-0.5-0.5-0.9-0.8-1.3c-0.3-0.4-0.6-0.8-0.8-1.2c-0.1-0.2-0.3-0.5-0.4-0.7
				c-0.1-0.2-0.2-0.5-0.3-0.8c-0.1-0.2-0.2-0.5-0.2-0.7c-0.1-0.2-0.2-0.4-0.2-0.7c-0.1-0.4-0.2-0.8-0.3-1.1
				c-0.1-0.4-0.2-0.8-0.2-1.1c-0.1-0.3-0.2-0.6-0.2-1c0-0.3-0.1-0.6-0.1-1c0-0.2-0.1-0.5,0-0.7c0-0.2,0-0.5,0-0.7c0-0.4,0-0.7,0-1.1
				c0-0.3,0.1-0.7,0.2-1.1c0-0.3,0.1-0.6,0.1-1c0-0.3,0.1-0.6,0.2-1c0.1-0.7,0.3-1.3,0.5-2c0.2-0.7,0.5-1.3,0.9-1.9
				c0.2-0.4,0.5-0.8,0.7-1.1c0.2-0.4,0.5-0.8,0.8-1.1c0.6-0.7,1.1-1.3,1.7-1.8c0.7-0.7,1.4-1.3,2.3-1.9c0.2-0.2,0.4-0.4,0.6-0.5
				c0.2-0.1,0.4-0.3,0.6-0.4c0.7-0.4,1.3-0.7,1.8-1c0.5-0.2,1-0.4,1.6-0.4c0.4,0,0.7-0.1,1-0.2c0.3-0.1,0.6-0.1,1-0.2
				c0.3-0.1,0.6-0.2,1-0.2c0.3-0.1,0.6-0.1,1-0.2c0.4,0,0.8,0,1.1,0c0.4,0,0.8,0,1.1,0.1c0.4,0.1,0.9,0.2,1.3,0.2
				c0.4,0.1,0.9,0.2,1.4,0.2c1.5,0.3,2.9,0.8,4,1.6c0.8,0.5,1.5,1,2.2,1.6c0.3,0.3,0.6,0.6,1,0.8s0.6,0.6,0.8,0.8
				c0.7,0.8,0.8,1.7,0.6,2.6c-0.1,0.7-0.4,1.3-0.9,1.6c-0.6,0.5-1.2,0.7-1.9,0.7c-0.7,0-1.3-0.2-1.9-0.7l-0.4-0.4
				c-0.2-0.2-0.5-0.5-0.8-0.7c-0.3-0.2-0.6-0.4-1-0.6c-0.4-0.2-0.9-0.4-1.3-0.6c-0.4-0.2-0.9-0.4-1.5-0.5c-0.3-0.1-0.7-0.2-1-0.2
				c-0.3,0-0.7-0.1-1.1-0.1c-0.4,0-0.7,0-1.1,0s-0.7,0-1.1,0c-1.5,0-2.9,0.4-4.2,1.3c-0.5,0.3-1,0.7-1.4,1.1
				c-0.4,0.4-0.8,0.8-1.3,1.2c-0.3,0.4-0.6,0.8-0.9,1.2c-0.3,0.4-0.5,0.9-0.8,1.3c-0.4,0.9-0.7,1.9-0.8,2.8c-0.1,0.5-0.2,1-0.2,1.5
				c0,0.5,0,1,0,1.5c0.1,1.1,0.3,2.1,0.7,3c0.4,0.9,0.9,1.8,1.7,2.6c0.2,0.2,0.4,0.4,0.5,0.6c0.2,0.2,0.3,0.4,0.5,0.6
				c0.8,0.8,1.7,1.4,2.6,1.9c1.1,0.6,2.2,1,3.3,1.1c0.2,0,0.4,0.1,0.6,0.1c0.2,0,0.4,0,0.6,0c0.8,0,1.5,0,2.2-0.2s1.4-0.4,2-0.7
				c0.2,0,0.5-0.2,0.8-0.4c0.2-0.1,0.5-0.3,0.7-0.5c0.2-0.2,0.5-0.4,0.7-0.7c0.1-0.3,0.2-0.7,0.3-1c0.1-0.3,0.2-0.7,0.3-1.1v-0.6
				c0-0.2,0-0.5,0-0.7c0-0.3,0-0.5,0-0.7c0-1-0.5-1.7-1.4-2.3c-0.1,0-0.2-0.1-0.2-0.1c0,0-0.1,0-0.2-0.1c-0.4,0-0.7-0.1-1.1-0.1
				c-0.4,0-0.7-0.1-1.1-0.1c-0.6,0-1.1-0.1-1.7-0.4c-0.5-0.3-0.9-0.8-1.2-1.6c0-0.1-0.1-0.2-0.1-0.4v-0.6c-0.1-0.9,0.2-1.7,0.9-2.3
				c0,0,0.1-0.1,0.1-0.1c0.4-0.2,0.9-0.4,1.3-0.6c0.2,0,0.5,0,0.8,0s0.6,0,0.8-0.1c0.7-0.1,1.3-0.1,2-0.1c0.7,0,1.3,0,2,0
				c0.4,0,0.7,0,1,0c0.3,0,0.6,0,1,0.1c1,0,1.9,0.5,2.6,1.5c0.3,0.6,0.4,1.1,0.4,1.7c0,0.2,0,0.5,0,0.7c0,0.3,0,0.5-0.1,0.7V915.3z"
				/>
			<path class="st0" d="M709.3,894.6c0.3,0.2,0.6,0.5,0.9,0.8c0.2,0.3,0.4,0.6,0.5,1c0.1,0.4,0.2,0.8,0.3,1.2c0,0,0,0.1,0,0.1
				c0,0,0,0.1,0,0.2c0,0.5-0.2,0.9-0.4,1.2c-0.2,0.4-0.5,0.7-0.8,1.1c-0.2,0.2-0.5,0.5-0.7,0.8c-0.2,0.3-0.4,0.6-0.7,0.8l-1.9,3
				c-0.1,0.2-0.3,0.5-0.4,0.7c-0.1,0.2-0.3,0.5-0.4,0.7c-0.1,0.2-0.3,0.5-0.4,0.8c-0.1,0.3-0.3,0.5-0.5,0.8c-0.5,0.7-0.9,1.3-1.2,2
				c-0.4,0.7-0.7,1.4-1,2.1c-0.1,0.2-0.2,0.5-0.3,0.8c0,0.3-0.1,0.6-0.1,0.8c-0.1,0.5-0.1,1-0.1,1.5c0,0.5,0,1,0,1.5v6.1
				c0,0.2,0,0.5-0.1,0.7c0,0.2-0.1,0.4-0.1,0.7c0,0.2,0.1,0.4,0,0.6c0,0.2,0,0.4,0,0.6c0,0.2,0,0.5-0.1,0.7c0,0.2-0.1,0.5-0.1,0.7
				c0,0.2-0.2,0.5-0.4,0.8c-0.2,0.2-0.3,0.3-0.4,0.4c-0.3,0.3-0.7,0.5-1,0.6c-0.4,0.1-0.7,0.2-1.1,0.3c-0.1,0-0.2,0-0.3,0
				c-0.1,0-0.2,0-0.3,0c-1.2-0.2-2-0.8-2.4-2c0-0.1-0.1-0.2-0.1-0.4c0-0.2-0.1-0.5-0.1-0.8c0-0.3-0.1-0.6-0.1-0.8
				c0-0.4,0-0.6-0.1-0.8c-0.1-0.2-0.1-0.5-0.1-0.7c0-0.2,0-0.5,0-0.7c0.1-0.2,0.1-0.4,0.1-0.8c0.1-0.4,0.2-0.9,0.2-1.3
				c0-0.1,0-0.3,0-0.5c0-0.2,0-0.3,0.1-0.5c0.1-0.2,0.1-0.5,0.1-0.8c0-0.3-0.1-0.5-0.2-0.8c-0.1-0.2-0.1-0.4-0.1-0.6
				c0-0.2,0-0.3,0-0.5v-2.9c-0.1-0.2-0.1-0.5-0.1-0.7c0-0.2-0.1-0.4-0.2-0.7c0-0.1-0.1-0.2-0.1-0.2c0,0,0-0.1-0.1-0.2
				c0-0.4-0.1-0.8-0.4-1.1c-0.2-0.2-0.3-0.5-0.5-0.7c-0.1-0.2-0.2-0.5-0.3-0.7c-0.2-0.4-0.4-0.8-0.6-1.1c-0.2-0.4-0.4-0.8-0.7-1.1
				c-0.2-0.3-0.5-0.7-0.7-1c-0.2-0.3-0.5-0.7-0.7-1c-0.2-0.3-0.5-0.6-0.7-1c-0.2-0.3-0.4-0.6-0.7-1c-0.1-0.2-0.2-0.4-0.4-0.6
				c-0.1-0.2-0.3-0.4-0.4-0.6c-0.2-0.3-0.4-0.6-0.5-0.8c-0.2-0.3-0.3-0.6-0.5-0.9l-0.8-1.3c-0.1-0.1-0.2-0.2-0.2-0.4
				c0-0.1-0.1-0.3-0.2-0.4c0-0.2-0.1-0.5-0.1-0.7c0-0.2,0-0.5,0-0.7c0-0.1,0-0.3,0.1-0.5c0.3-0.8,0.7-1.3,1.2-1.6
				c0.2-0.1,0.4-0.2,0.5-0.3c0.1-0.1,0.3-0.2,0.4-0.3c0.1,0,0.3-0.1,0.4-0.1c0.1,0,0.2-0.1,0.4-0.1c0,0,0.1,0,0.1,0c0,0,0.1,0,0.2,0
				c0.5,0,0.9,0.2,1.3,0.5c0.3,0.3,0.6,0.6,0.8,1c0.2,0.2,0.4,0.5,0.6,0.8c0.3,0.7,0.7,1.4,1.1,2c0.4,0.6,0.8,1.3,1.3,1.9
				c0,0.1,0.1,0.2,0.1,0.3c0,0.1,0.1,0.2,0.1,0.3c0.1,0.4,0.3,0.7,0.5,1c0.2,0.3,0.5,0.6,0.7,0.9c0.2,0.2,0.5,0.4,0.8,0.6
				c0.3,0.2,0.6,0.3,0.8,0.4h0.5c0.5-0.1,0.9-0.4,1.3-0.7c0.5-0.4,0.8-0.8,1.1-1.2c0.3-0.6,0.7-1.2,1.2-1.8c0.4-0.5,0.7-0.9,1-1.4
				c0.3-0.5,0.6-0.9,0.9-1.4c0.1-0.2,0.3-0.5,0.4-0.7c0.1-0.2,0.3-0.4,0.4-0.7c0.1-0.1,0.2-0.3,0.3-0.4c0.1-0.1,0.2-0.3,0.4-0.4
				c0.5-0.5,1-0.8,1.6-1h0.8C708.6,894.2,709,894.4,709.3,894.6z"/>
		</g>
	</g>
</g>
</svg>
